<svg width="116" height="80" viewBox="0 0 116 80" fill="none" xmlns="http://www.w3.org/2000/svg">
<g opacity="0.2" filter="url(#filter0_f)">
<rect width="41.8827" height="27.1315" rx="1.3779" transform="matrix(0.93906 0.315203 -0.651503 0.782341 62.645 38.3251)" fill="#B7B7B7"/>
</g>
<g filter="url(#filter1_ii)">
<rect width="45.8318" height="29.2485" rx="1.3779" transform="matrix(0.93906 0.315203 -0.651503 0.782341 56.2735 29.467)" fill="white" fill-opacity="0.4"/>
<rect width="45.8318" height="29.2485" rx="1.3779" transform="matrix(0.93906 0.315203 -0.651503 0.782341 56.2735 29.467)" fill="url(#paint0_linear)"/>
</g>
<g opacity="0.5" filter="url(#filter2_ii)">
<path fill-rule="evenodd" clip-rule="evenodd" d="M60.8535 29.1132C58.387 28.285 55.0008 29.2797 53.2901 31.3349L38.5322 49.0651C36.8215 51.1203 37.4342 53.4578 39.9006 54.286L76.3293 66.5187C78.7958 67.347 82.182 66.3523 83.8927 64.297L98.6506 46.5669C100.361 44.5117 99.7486 42.1741 97.2822 41.3459L60.8535 29.1132ZM58.5853 29.5167C57.8708 29.2768 56.8898 29.5649 56.3942 30.1604L38.7088 51.4083C38.2132 52.0037 38.3907 52.6809 39.1053 52.9209L78.9698 66.3077C79.6844 66.5477 80.6654 66.2595 81.161 65.6641L97.4074 46.145C98.6977 44.5948 98.2356 42.8316 96.3751 42.2068L58.5853 29.5167Z" fill="white" fill-opacity="0.4"/>
</g>
<g filter="url(#filter3_i)">
<rect width="13.9582" height="8.64514" rx="1.06231" transform="matrix(0.940582 0.314435 -0.64773 0.782188 57.6055 29.7562)" fill="#FC4040" fill-opacity="0.8"/>
</g>
<g filter="url(#filter4_i)">
<rect width="13.9581" height="8.64506" rx="1.06231" transform="matrix(0.940567 0.314459 -0.647683 0.782212 71.4527 34.6001)" fill="#5096FF" fill-opacity="0.8"/>
</g>
<g filter="url(#filter5_i)">
<path d="M84.6189 40.1181C84.9989 39.6591 85.7543 39.4367 86.3061 39.6212L96.3942 42.9939C97.5216 43.3708 97.8062 44.4364 97.0299 45.374L93.5243 49.6077C93.1443 50.0666 92.3889 50.2891 91.8371 50.1046L80.7069 46.3834C80.155 46.1989 80.0157 45.6774 80.3957 45.2184L84.6189 40.1181Z" fill="#27C94B" fill-opacity="0.8"/>
</g>
<g filter="url(#filter6_i)">
<rect width="13.9582" height="8.64514" rx="1.06231" transform="matrix(0.940582 0.314435 -0.64773 0.782188 51.5928 37.2513)" fill="#CB5FE6" fill-opacity="0.8"/>
</g>
<g filter="url(#filter7_i)">
<rect width="13.9581" height="8.64506" rx="1.06231" transform="matrix(0.940567 0.314459 -0.647683 0.782212 65.4399 42.0953)" fill="#E7B24C" fill-opacity="0.8"/>
</g>
<g filter="url(#filter8_i)">
<rect width="13.9581" height="8.64506" rx="1.06231" transform="matrix(0.940567 0.314459 -0.647683 0.782212 79.2943 46.7823)" fill="#22C7FB" fill-opacity="0.8"/>
</g>
<g filter="url(#filter9_i)">
<rect width="13.9582" height="8.64514" rx="1.06231" transform="matrix(0.940582 0.314435 -0.64773 0.782188 45.5801 44.7465)" fill="#FB7022" fill-opacity="0.8"/>
</g>
<g filter="url(#filter10_i)">
<rect width="13.9581" height="8.64506" rx="1.06231" transform="matrix(0.940567 0.314459 -0.647683 0.782212 59.4272 49.5905)" fill="#8672FE" fill-opacity="0.8"/>
</g>
<g filter="url(#filter11_i)">
<rect width="13.9581" height="8.64506" rx="1.06231" transform="matrix(0.940567 0.314459 -0.647683 0.782212 73.2816 54.2775)" fill="#FBE522" fill-opacity="0.8"/>
</g>
<g opacity="0.4" filter="url(#filter12_f)">
<path d="M41.1106 34.4592L53.8955 42.4657C54.0107 42.5936 54.1005 42.6552 54.17 42.6671C54.2725 42.4215 54.3502 42.1393 54.3823 41.8659C54.3569 41.3865 54.2715 40.9219 54.3504 41.2079C54.4038 41.4011 54.41 41.6302 54.3823 41.8659C54.4041 42.2791 54.3813 42.7033 54.17 42.6671C54.0802 42.8821 53.9713 43.069 53.8572 43.1973L49.9677 40.4257L39.5515 36.2114L41.1106 34.4592Z" fill="#818181"/>
</g>
<g filter="url(#filter13_i)">
<path d="M16.3752 24.5522L37.874 37.8128C40.8817 39.668 44.4616 40.2955 47.9384 40.9282C48.9897 41.1196 50.0721 41.4179 51.0633 41.8764C51.6594 42.1521 52.1578 42.3822 52.5719 42.573C53.6185 43.0552 54.8549 42.678 55.4599 41.6972C55.9676 40.8741 55.5634 39.5431 54.8105 38.9363C54.4553 38.6499 54.0407 38.2859 53.5632 37.8235C52.6412 36.9306 51.8227 35.9122 51.1314 34.9302C49.2902 32.315 47.2145 29.7942 44.4991 28.1043L22.6133 14.4838C19.8286 12.7508 16.1657 13.6112 14.4438 16.4028C12.7267 19.1866 13.5915 22.8352 16.3752 24.5522Z" fill="url(#paint1_linear)"/>
<path d="M16.3752 24.5522L37.874 37.8128C40.8817 39.668 44.4616 40.2955 47.9384 40.9282C48.9897 41.1196 50.0721 41.4179 51.0633 41.8764C51.6594 42.1521 52.1578 42.3822 52.5719 42.573C53.6185 43.0552 54.8549 42.678 55.4599 41.6972C55.9676 40.8741 55.5634 39.5431 54.8105 38.9363C54.4553 38.6499 54.0407 38.2859 53.5632 37.8235C52.6412 36.9306 51.8227 35.9122 51.1314 34.9302C49.2902 32.315 47.2145 29.7942 44.4991 28.1043L22.6133 14.4838C19.8286 12.7508 16.1657 13.6112 14.4438 16.4028C12.7267 19.1866 13.5915 22.8352 16.3752 24.5522Z" fill="url(#paint2_linear)"/>
</g>
<path d="M16.3752 24.5522L37.874 37.8128C40.8817 39.668 44.4616 40.2955 47.9384 40.9282C48.9897 41.1196 50.0721 41.4179 51.0633 41.8764C51.6594 42.1521 52.1578 42.3822 52.5719 42.573C53.6185 43.0552 54.8549 42.678 55.4599 41.6972C55.9676 40.8741 55.5634 39.5431 54.8105 38.9363C54.4553 38.6499 54.0407 38.2859 53.5632 37.8235C52.6412 36.9306 51.8227 35.9122 51.1314 34.9302C49.2902 32.315 47.2145 29.7942 44.4991 28.1043L22.6133 14.4838C19.8286 12.7508 16.1657 13.6112 14.4438 16.4028C12.7267 19.1866 13.5915 22.8352 16.3752 24.5522Z" stroke="url(#paint3_linear)" stroke-opacity="0.1" stroke-width="0.0732595"/>
<g filter="url(#filter14_ii)">
<path d="M22.639 30.9634L12.6696 24.277C9.00295 21.8179 8.0241 16.8519 10.4833 13.1852V13.1852C12.9425 9.51853 17.9085 8.53967 21.5751 10.9989L31.5446 17.6852L22.639 30.9634Z" fill="#5B3689"/>
<path d="M22.639 30.9634L12.6696 24.277C9.00295 21.8179 8.0241 16.8519 10.4833 13.1852V13.1852C12.9425 9.51853 17.9085 8.53967 21.5751 10.9989L31.5446 17.6852L22.639 30.9634Z" fill="url(#paint4_linear)"/>
</g>
<g filter="url(#filter15_ii)">
<path d="M22.9272 30.6813C22.6519 31.0918 22.0959 31.2013 21.6854 30.926V30.926C21.275 30.6507 21.1654 30.0948 21.4407 29.6843L30.0062 16.913C30.2815 16.5025 30.8375 16.3929 31.248 16.6682V16.6682C31.6585 16.9435 31.768 17.4995 31.4927 17.91L22.9272 30.6813Z" fill="#5B3689"/>
<path d="M22.9272 30.6813C22.6519 31.0918 22.0959 31.2013 21.6854 30.926V30.926C21.275 30.6507 21.1654 30.0948 21.4407 29.6843L30.0062 16.913C30.2815 16.5025 30.8375 16.3929 31.248 16.6682V16.6682C31.6585 16.9435 31.768 17.4995 31.4927 17.91L22.9272 30.6813Z" fill="url(#paint5_linear)"/>
</g>
<g opacity="0.8" filter="url(#filter16_f)">
<path d="M44.7044 30.3418L29.7314 20.7472L26.7786 25.4952L47.963 38.4159C48.4543 37.8077 49.3646 36.3712 49.0757 35.4907C48.7868 34.6102 46.0412 31.6913 44.7044 30.3418Z" fill="white"/>
</g>
<g opacity="0.3" filter="url(#filter17_f)">
<path d="M40.3978 33.0677L27.5957 25.1742L25.7504 28.0959L40.3819 36.4171C40.7193 35.9994 40.9782 35.0112 40.7798 34.4065C40.5814 33.8018 41.3158 33.9944 40.3978 33.0677Z" fill="#818181"/>
</g>
<g opacity="0.4" filter="url(#filter18_f)">
<path d="M24.3996 12.3873L14.3622 7.58056L9.57269 13.4187L24.3581 21.1784C24.8493 20.5702 27.6067 15.8457 27.3179 14.9652C27.029 14.0848 25.7364 13.7368 24.3996 12.3873Z" fill="white"/>
</g>
<g opacity="0.4" filter="url(#filter19_f)">
<path d="M22.1755 16.6211L12.1329 12.9074L7.34975 17.3995L22.1435 23.3929C22.6341 22.9249 25.3863 19.2886 25.0965 18.61C24.8067 17.9315 23.5137 17.662 22.1755 16.6211Z" fill="white"/>
</g>
<g filter="url(#filter20_f)">
<path d="M51.4132 44.7695C49.9127 44.5194 49.008 42.8453 47.5648 42.8453L45.4432 42.5758L44 44.5L44.4811 45.4621L46.1216 45.2506L48.5269 46.2127L55.2617 45.7316L54.2996 41.8832C54.2996 42.8453 54.2996 45.2506 51.4132 44.7695Z" fill="#404040" fill-opacity="0.4"/>
</g>
<defs>
<filter id="filter0_f" x="41.1563" y="34.2459" width="64.6315" height="42.5861" filterUnits="userSpaceOnUse" color-interpolation-filters="sRGB">
<feFlood flood-opacity="0" result="BackgroundImageFix"/>
<feBlend mode="normal" in="SourceGraphic" in2="BackgroundImageFix" result="shape"/>
<feGaussianBlur stdDeviation="2.21453" result="effect1_foregroundBlur"/>
</filter>
<filter id="filter1_ii" x="37.8347" y="27.4388" width="60.861" height="43.7632" filterUnits="userSpaceOnUse" color-interpolation-filters="sRGB">
<feFlood flood-opacity="0" result="BackgroundImageFix"/>
<feBlend mode="normal" in="SourceGraphic" in2="BackgroundImageFix" result="shape"/>
<feColorMatrix in="SourceAlpha" type="matrix" values="0 0 0 0 0 0 0 0 0 0 0 0 0 0 0 0 0 0 127 0" result="hardAlpha"/>
<feOffset dy="-2.37808"/>
<feGaussianBlur stdDeviation="2.37808"/>
<feComposite in2="hardAlpha" operator="arithmetic" k2="-1" k3="1"/>
<feColorMatrix type="matrix" values="0 0 0 0 1 0 0 0 0 1 0 0 0 0 1 0 0 0 0.1 0"/>
<feBlend mode="normal" in2="shape" result="effect1_innerShadow"/>
<feColorMatrix in="SourceAlpha" type="matrix" values="0 0 0 0 0 0 0 0 0 0 0 0 0 0 0 0 0 0 127 0" result="hardAlpha"/>
<feOffset dy="4.75616"/>
<feGaussianBlur stdDeviation="2.37808"/>
<feComposite in2="hardAlpha" operator="arithmetic" k2="-1" k3="1"/>
<feColorMatrix type="matrix" values="0 0 0 0 1 0 0 0 0 1 0 0 0 0 1 0 0 0 0.4 0"/>
<feBlend mode="normal" in2="effect1_innerShadow" result="effect2_innerShadow"/>
</filter>
<filter id="filter2_ii" x="37.5627" y="26.4433" width="62.0574" height="45.1235" filterUnits="userSpaceOnUse" color-interpolation-filters="sRGB">
<feFlood flood-opacity="0" result="BackgroundImageFix"/>
<feBlend mode="normal" in="SourceGraphic" in2="BackgroundImageFix" result="shape"/>
<feColorMatrix in="SourceAlpha" type="matrix" values="0 0 0 0 0 0 0 0 0 0 0 0 0 0 0 0 0 0 127 0" result="hardAlpha"/>
<feOffset dy="-2.37808"/>
<feGaussianBlur stdDeviation="2.37808"/>
<feComposite in2="hardAlpha" operator="arithmetic" k2="-1" k3="1"/>
<feColorMatrix type="matrix" values="0 0 0 0 0 0 0 0 0 0 0 0 0 0 0 0 0 0 0.9 0"/>
<feBlend mode="normal" in2="shape" result="effect1_innerShadow"/>
<feColorMatrix in="SourceAlpha" type="matrix" values="0 0 0 0 0 0 0 0 0 0 0 0 0 0 0 0 0 0 127 0" result="hardAlpha"/>
<feOffset dy="4.75616"/>
<feGaussianBlur stdDeviation="2.37808"/>
<feComposite in2="hardAlpha" operator="arithmetic" k2="-1" k3="1"/>
<feColorMatrix type="matrix" values="0 0 0 0 1 0 0 0 0 1 0 0 0 0 1 0 0 0 1 0"/>
<feBlend mode="normal" in2="effect1_innerShadow" result="effect2_innerShadow"/>
</filter>
<filter id="filter3_i" x="52.4797" y="30.0254" width="17.7806" height="10.8244" filterUnits="userSpaceOnUse" color-interpolation-filters="sRGB">
<feFlood flood-opacity="0" result="BackgroundImageFix"/>
<feBlend mode="normal" in="SourceGraphic" in2="BackgroundImageFix" result="shape"/>
<feColorMatrix in="SourceAlpha" type="matrix" values="0 0 0 0 0 0 0 0 0 0 0 0 0 0 0 0 0 0 127 0" result="hardAlpha"/>
<feOffset dy="0.211686"/>
<feGaussianBlur stdDeviation="0.521326"/>
<feComposite in2="hardAlpha" operator="arithmetic" k2="-1" k3="1"/>
<feColorMatrix type="matrix" values="0 0 0 0 0 0 0 0 0 0 0 0 0 0 0 0 0 0 0.25 0"/>
<feBlend mode="normal" in2="shape" result="effect1_innerShadow"/>
</filter>
<filter id="filter4_i" x="66.3274" y="34.8693" width="17.7799" height="10.8249" filterUnits="userSpaceOnUse" color-interpolation-filters="sRGB">
<feFlood flood-opacity="0" result="BackgroundImageFix"/>
<feBlend mode="normal" in="SourceGraphic" in2="BackgroundImageFix" result="shape"/>
<feColorMatrix in="SourceAlpha" type="matrix" values="0 0 0 0 0 0 0 0 0 0 0 0 0 0 0 0 0 0 127 0" result="hardAlpha"/>
<feOffset dy="0.211686"/>
<feGaussianBlur stdDeviation="0.521326"/>
<feComposite in2="hardAlpha" operator="arithmetic" k2="-1" k3="1"/>
<feColorMatrix type="matrix" values="0 0 0 0 0 0 0 0 0 0 0 0 0 0 0 0 0 0 0.25 0"/>
<feBlend mode="normal" in2="shape" result="effect1_innerShadow"/>
</filter>
<filter id="filter5_i" x="80.1816" y="39.5563" width="17.2856" height="10.8249" filterUnits="userSpaceOnUse" color-interpolation-filters="sRGB">
<feFlood flood-opacity="0" result="BackgroundImageFix"/>
<feBlend mode="normal" in="SourceGraphic" in2="BackgroundImageFix" result="shape"/>
<feColorMatrix in="SourceAlpha" type="matrix" values="0 0 0 0 0 0 0 0 0 0 0 0 0 0 0 0 0 0 127 0" result="hardAlpha"/>
<feOffset dy="0.211686"/>
<feGaussianBlur stdDeviation="0.521326"/>
<feComposite in2="hardAlpha" operator="arithmetic" k2="-1" k3="1"/>
<feColorMatrix type="matrix" values="0 0 0 0 0 0 0 0 0 0 0 0 0 0 0 0 0 0 0.25 0"/>
<feBlend mode="normal" in2="shape" result="effect1_innerShadow"/>
</filter>
<filter id="filter6_i" x="46.467" y="37.5205" width="17.7806" height="10.8244" filterUnits="userSpaceOnUse" color-interpolation-filters="sRGB">
<feFlood flood-opacity="0" result="BackgroundImageFix"/>
<feBlend mode="normal" in="SourceGraphic" in2="BackgroundImageFix" result="shape"/>
<feColorMatrix in="SourceAlpha" type="matrix" values="0 0 0 0 0 0 0 0 0 0 0 0 0 0 0 0 0 0 127 0" result="hardAlpha"/>
<feOffset dy="0.211686"/>
<feGaussianBlur stdDeviation="0.521326"/>
<feComposite in2="hardAlpha" operator="arithmetic" k2="-1" k3="1"/>
<feColorMatrix type="matrix" values="0 0 0 0 0 0 0 0 0 0 0 0 0 0 0 0 0 0 0.25 0"/>
<feBlend mode="normal" in2="shape" result="effect1_innerShadow"/>
</filter>
<filter id="filter7_i" x="60.3146" y="42.3645" width="17.7799" height="10.8249" filterUnits="userSpaceOnUse" color-interpolation-filters="sRGB">
<feFlood flood-opacity="0" result="BackgroundImageFix"/>
<feBlend mode="normal" in="SourceGraphic" in2="BackgroundImageFix" result="shape"/>
<feColorMatrix in="SourceAlpha" type="matrix" values="0 0 0 0 0 0 0 0 0 0 0 0 0 0 0 0 0 0 127 0" result="hardAlpha"/>
<feOffset dy="0.211686"/>
<feGaussianBlur stdDeviation="0.521326"/>
<feComposite in2="hardAlpha" operator="arithmetic" k2="-1" k3="1"/>
<feColorMatrix type="matrix" values="0 0 0 0 0 0 0 0 0 0 0 0 0 0 0 0 0 0 0.25 0"/>
<feBlend mode="normal" in2="shape" result="effect1_innerShadow"/>
</filter>
<filter id="filter8_i" x="74.1689" y="47.0515" width="17.7799" height="10.8249" filterUnits="userSpaceOnUse" color-interpolation-filters="sRGB">
<feFlood flood-opacity="0" result="BackgroundImageFix"/>
<feBlend mode="normal" in="SourceGraphic" in2="BackgroundImageFix" result="shape"/>
<feColorMatrix in="SourceAlpha" type="matrix" values="0 0 0 0 0 0 0 0 0 0 0 0 0 0 0 0 0 0 127 0" result="hardAlpha"/>
<feOffset dy="0.211686"/>
<feGaussianBlur stdDeviation="0.521326"/>
<feComposite in2="hardAlpha" operator="arithmetic" k2="-1" k3="1"/>
<feColorMatrix type="matrix" values="0 0 0 0 0 0 0 0 0 0 0 0 0 0 0 0 0 0 0.25 0"/>
<feBlend mode="normal" in2="shape" result="effect1_innerShadow"/>
</filter>
<filter id="filter9_i" x="40.4543" y="45.0156" width="17.7806" height="10.8244" filterUnits="userSpaceOnUse" color-interpolation-filters="sRGB">
<feFlood flood-opacity="0" result="BackgroundImageFix"/>
<feBlend mode="normal" in="SourceGraphic" in2="BackgroundImageFix" result="shape"/>
<feColorMatrix in="SourceAlpha" type="matrix" values="0 0 0 0 0 0 0 0 0 0 0 0 0 0 0 0 0 0 127 0" result="hardAlpha"/>
<feOffset dy="0.211686"/>
<feGaussianBlur stdDeviation="0.521326"/>
<feComposite in2="hardAlpha" operator="arithmetic" k2="-1" k3="1"/>
<feColorMatrix type="matrix" values="0 0 0 0 0 0 0 0 0 0 0 0 0 0 0 0 0 0 0.25 0"/>
<feBlend mode="normal" in2="shape" result="effect1_innerShadow"/>
</filter>
<filter id="filter10_i" x="54.3019" y="49.8596" width="17.7799" height="10.8249" filterUnits="userSpaceOnUse" color-interpolation-filters="sRGB">
<feFlood flood-opacity="0" result="BackgroundImageFix"/>
<feBlend mode="normal" in="SourceGraphic" in2="BackgroundImageFix" result="shape"/>
<feColorMatrix in="SourceAlpha" type="matrix" values="0 0 0 0 0 0 0 0 0 0 0 0 0 0 0 0 0 0 127 0" result="hardAlpha"/>
<feOffset dy="0.211686"/>
<feGaussianBlur stdDeviation="0.521326"/>
<feComposite in2="hardAlpha" operator="arithmetic" k2="-1" k3="1"/>
<feColorMatrix type="matrix" values="0 0 0 0 0 0 0 0 0 0 0 0 0 0 0 0 0 0 0.25 0"/>
<feBlend mode="normal" in2="shape" result="effect1_innerShadow"/>
</filter>
<filter id="filter11_i" x="68.1562" y="54.5467" width="17.7799" height="10.8249" filterUnits="userSpaceOnUse" color-interpolation-filters="sRGB">
<feFlood flood-opacity="0" result="BackgroundImageFix"/>
<feBlend mode="normal" in="SourceGraphic" in2="BackgroundImageFix" result="shape"/>
<feColorMatrix in="SourceAlpha" type="matrix" values="0 0 0 0 0 0 0 0 0 0 0 0 0 0 0 0 0 0 127 0" result="hardAlpha"/>
<feOffset dy="0.211686"/>
<feGaussianBlur stdDeviation="0.521326"/>
<feComposite in2="hardAlpha" operator="arithmetic" k2="-1" k3="1"/>
<feColorMatrix type="matrix" values="0 0 0 0 0 0 0 0 0 0 0 0 0 0 0 0 0 0 0.25 0"/>
<feBlend mode="normal" in2="shape" result="effect1_innerShadow"/>
</filter>
<filter id="filter12_f" x="36.7097" y="31.8668" width="20.5618" height="13.871" filterUnits="userSpaceOnUse" color-interpolation-filters="sRGB">
<feFlood flood-opacity="0" result="BackgroundImageFix"/>
<feBlend mode="normal" in="SourceGraphic" in2="BackgroundImageFix" result="shape"/>
<feGaussianBlur stdDeviation="1.2578" result="effect1_foregroundBlur"/>
</filter>
<filter id="filter13_i" x="11.2844" y="11.312" width="47.3328" height="37.1811" filterUnits="userSpaceOnUse" color-interpolation-filters="sRGB">
<feFlood flood-opacity="0" result="BackgroundImageFix"/>
<feBlend mode="normal" in="SourceGraphic" in2="BackgroundImageFix" result="shape"/>
<feColorMatrix in="SourceAlpha" type="matrix" values="0 0 0 0 0 0 0 0 0 0 0 0 0 0 0 0 0 0 127 0" result="hardAlpha"/>
<feOffset dy="3.40335"/>
<feGaussianBlur stdDeviation="0.850837"/>
<feComposite in2="hardAlpha" operator="arithmetic" k2="-1" k3="1"/>
<feColorMatrix type="matrix" values="0 0 0 0 0 0 0 0 0 0 0 0 0 0 0 0 0 0 0.1 0"/>
<feBlend mode="normal" in2="shape" result="effect1_innerShadow"/>
</filter>
<filter id="filter14_ii" x="6.03052" y="5.86049" width="25.514" height="27.4695" filterUnits="userSpaceOnUse" color-interpolation-filters="sRGB">
<feFlood flood-opacity="0" result="BackgroundImageFix"/>
<feBlend mode="normal" in="SourceGraphic" in2="BackgroundImageFix" result="shape"/>
<feColorMatrix in="SourceAlpha" type="matrix" values="0 0 0 0 0 0 0 0 0 0 0 0 0 0 0 0 0 0 127 0" result="hardAlpha"/>
<feOffset dy="-0.685623"/>
<feGaussianBlur stdDeviation="0.497077"/>
<feComposite in2="hardAlpha" operator="arithmetic" k2="-1" k3="1"/>
<feColorMatrix type="matrix" values="0 0 0 0 0 0 0 0 0 0 0 0 0 0 0 0 0 0 0.1 0"/>
<feBlend mode="normal" in2="shape" result="effect1_innerShadow"/>
<feColorMatrix in="SourceAlpha" type="matrix" values="0 0 0 0 0 0 0 0 0 0 0 0 0 0 0 0 0 0 127 0" result="hardAlpha"/>
<feOffset dy="2.3666"/>
<feGaussianBlur stdDeviation="1.1833"/>
<feComposite in2="hardAlpha" operator="arithmetic" k2="-1" k3="1"/>
<feColorMatrix type="matrix" values="0 0 0 0 1 0 0 0 0 1 0 0 0 0 1 0 0 0 0.1 0"/>
<feBlend mode="normal" in2="effect1_innerShadow" result="effect2_innerShadow"/>
</filter>
<filter id="filter15_ii" x="20.9422" y="16.1697" width="11.0491" height="19.1032" filterUnits="userSpaceOnUse" color-interpolation-filters="sRGB">
<feFlood flood-opacity="0" result="BackgroundImageFix"/>
<feBlend mode="normal" in="SourceGraphic" in2="BackgroundImageFix" result="shape"/>
<feColorMatrix in="SourceAlpha" type="matrix" values="0 0 0 0 0 0 0 0 0 0 0 0 0 0 0 0 0 0 127 0" result="hardAlpha"/>
<feOffset dy="9.17202"/>
<feGaussianBlur stdDeviation="1.1833"/>
<feComposite in2="hardAlpha" operator="arithmetic" k2="-1" k3="1"/>
<feColorMatrix type="matrix" values="0 0 0 0 1 0 0 0 0 1 0 0 0 0 1 0 0 0 0.1 0"/>
<feBlend mode="normal" in2="shape" result="effect1_innerShadow"/>
<feColorMatrix in="SourceAlpha" type="matrix" values="0 0 0 0 0 0 0 0 0 0 0 0 0 0 0 0 0 0 127 0" result="hardAlpha"/>
<feOffset dy="3.84843"/>
<feGaussianBlur stdDeviation="1.92422"/>
<feComposite in2="hardAlpha" operator="arithmetic" k2="-1" k3="1"/>
<feColorMatrix type="matrix" values="0 0 0 0 0 0 0 0 0 0 0 0 0 0 0 0 0 0 0.25 0"/>
<feBlend mode="normal" in2="effect1_innerShadow" result="effect2_innerShadow"/>
</filter>
<filter id="filter16_f" x="23.055" y="17.0704" width="29.8102" height="25.014" filterUnits="userSpaceOnUse" color-interpolation-filters="sRGB">
<feFlood flood-opacity="0" result="BackgroundImageFix"/>
<feBlend mode="normal" in="SourceGraphic" in2="BackgroundImageFix" result="shape"/>
<feGaussianBlur stdDeviation="1.83149" result="effect1_foregroundBlur"/>
</filter>
<filter id="filter17_f" x="23.1958" y="22.6499" width="20.232" height="16.2851" filterUnits="userSpaceOnUse" color-interpolation-filters="sRGB">
<feFlood flood-opacity="0" result="BackgroundImageFix"/>
<feBlend mode="normal" in="SourceGraphic" in2="BackgroundImageFix" result="shape"/>
<feGaussianBlur stdDeviation="1.2578" result="effect1_foregroundBlur"/>
</filter>
<filter id="filter18_f" x="2.94296" y="0.964687" width="31.0248" height="26.821" filterUnits="userSpaceOnUse" color-interpolation-filters="sRGB">
<feFlood flood-opacity="0" result="BackgroundImageFix"/>
<feBlend mode="normal" in="SourceGraphic" in2="BackgroundImageFix" result="shape"/>
<feGaussianBlur stdDeviation="3.29668" result="effect1_foregroundBlur"/>
</filter>
<filter id="filter19_f" x="0.728359" y="6.29156" width="31.0101" height="23.7087" filterUnits="userSpaceOnUse" color-interpolation-filters="sRGB">
<feFlood flood-opacity="0" result="BackgroundImageFix"/>
<feBlend mode="normal" in="SourceGraphic" in2="BackgroundImageFix" result="shape"/>
<feGaussianBlur stdDeviation="3.29668" result="effect1_foregroundBlur"/>
</filter>
<filter id="filter20_f" x="40.1516" y="38.0348" width="18.9585" height="12.0264" filterUnits="userSpaceOnUse" color-interpolation-filters="sRGB">
<feFlood flood-opacity="0" result="BackgroundImageFix"/>
<feBlend mode="normal" in="SourceGraphic" in2="BackgroundImageFix" result="shape"/>
<feGaussianBlur stdDeviation="1.92422" result="effect1_foregroundBlur"/>
</filter>
<linearGradient id="paint0_linear" x1="22.9159" y1="0" x2="22.9159" y2="29.2485" gradientUnits="userSpaceOnUse">
<stop stop-color="white"/>
<stop offset="1" stop-color="white" stop-opacity="0"/>
</linearGradient>
<linearGradient id="paint1_linear" x1="28.318" y1="44.9284" x2="38.7142" y2="28.7595" gradientUnits="userSpaceOnUse">
<stop stop-color="white"/>
<stop offset="1" stop-color="white" stop-opacity="0"/>
</linearGradient>
<linearGradient id="paint2_linear" x1="46.339" y1="21.0791" x2="40.4312" y2="31.1566" gradientUnits="userSpaceOnUse">
<stop stop-color="white"/>
<stop offset="1" stop-color="white" stop-opacity="0"/>
</linearGradient>
<linearGradient id="paint3_linear" x1="35.4963" y1="36.3463" x2="41.7267" y2="26.2452" gradientUnits="userSpaceOnUse">
<stop stop-color="white"/>
<stop offset="1" stop-color="#797979"/>
</linearGradient>
<linearGradient id="paint4_linear" x1="-21.7198" y1="38.1656" x2="26.5242" y2="21.7904" gradientUnits="userSpaceOnUse">
<stop/>
<stop offset="0.9999" stop-opacity="0.01"/>
<stop offset="1" stop-color="white" stop-opacity="0"/>
</linearGradient>
<linearGradient id="paint5_linear" x1="24.722" y1="39.9068" x2="27.1405" y2="29.5818" gradientUnits="userSpaceOnUse">
<stop stop-color="#474747"/>
<stop offset="1" stop-color="#BFBEBE" stop-opacity="0.07"/>
</linearGradient>
</defs>
</svg>
