<svg width="142" height="34" viewBox="0 0 142 34" fill="none" xmlns="http://www.w3.org/2000/svg">
<path d="M15.8957 1.35769C13.9799 0.953564 11.4503 0.938596 9.54942 1.32776L8.33703 7.95847H7.72335L6.52593 1.32776C4.62503 0.938596 2.11045 0.953564 0.194581 1.35769C0.748387 4.47098 1.4369 7.44956 2.2751 10.2934C2.88877 10.3832 3.74193 10.4581 4.69987 10.503C4.5951 11.6854 4.5951 12.8679 4.71484 14.0653C6.66064 14.3347 9.39974 14.3347 11.3605 14.0653C11.4803 12.8679 11.5102 11.6854 11.4054 10.503C12.3634 10.4581 13.2015 10.3832 13.8152 10.2934C14.6384 7.44956 15.3419 4.47098 15.8957 1.35769ZM22.1727 14.4694C24.6424 14.4694 27.5012 14.0054 27.6958 13.9755C27.8305 12.6134 27.8305 11.2813 27.6958 9.93421C26.1541 10.6527 23.9539 10.967 22.5768 10.952C21.3495 10.952 20.4664 10.3533 20.6161 9.35047C24.0287 10.0689 27.9652 9.29059 27.9652 6.19227C27.9652 4.14169 26.6181 3.04905 22.4272 3.04905C18.6254 3.04905 15.7965 4.94995 15.7965 8.64698C15.7965 11.5058 17.1136 14.4694 22.1727 14.4694ZM20.6161 7.70401C20.7358 6.76105 21.6039 6.25214 22.4571 6.19227C23.1606 6.14737 23.7743 6.40182 23.7743 7.18014C23.7743 8.33266 21.7686 8.51227 20.5861 8.12311L20.6161 7.70401ZM35.2991 14.3946C37.2748 14.3946 38.8913 14.0803 38.9662 14.0803C39.1009 12.6583 39.1009 11.2364 38.9662 9.7995C36.9006 10.3683 35.5086 10.024 35.1494 8.4075C35.0446 7.74892 35.0446 7.19511 35.0446 6.58143C36.6611 7.41963 38.6818 6.73111 38.8315 6.73111C38.9662 5.48879 38.9662 4.15666 38.8315 2.89937L34.9997 3.64776L34.9698 1.13318C32.7097 1.59718 30.7339 2.34556 29.0126 3.33343C28.8779 4.48595 28.8779 5.68337 29.0126 6.83589L30.3897 6.65627V8.60208C30.4196 11.9099 30.8986 14.3946 35.2991 14.3946ZM52.6765 14.2C54.2032 14.3347 55.8946 14.3347 57.4362 14.0653C57.4362 13.9007 57.5111 12.1345 57.5111 8.8715C57.5111 6.01266 57.062 3.04905 50.6858 3.04905C48.2161 3.04905 44.7885 3.49808 44.998 3.52801C44.8633 4.87511 44.8783 6.23718 45.013 7.58427C46.5397 6.85085 48.8897 6.5515 50.2817 6.5515C51.5839 6.56647 52.5268 7.13524 52.3322 8.18298C48.8298 7.40466 44.5041 8.13808 44.5041 11.3412C44.5041 13.3618 45.926 14.4694 48.3359 14.4694C51.6737 14.4694 51.7934 12.2243 51.9131 12.0297H52.2125L52.6765 14.2ZM49.2189 10.473C49.2189 9.27563 51.1648 9.06608 52.4669 9.50014V9.8893C52.3322 10.7874 51.3444 11.4909 50.4762 11.4909C49.7578 11.4909 49.2189 11.2065 49.2189 10.473ZM58.9099 14.0653C60.6012 14.3347 62.2776 14.3347 63.9839 14.0653V7.68905C64.1635 7.40466 64.7173 7.12027 65.2861 7.12027C65.9597 7.12027 66.5733 7.5244 66.5733 8.81163V14.0653C68.4293 14.3347 70.2853 14.3347 72.1413 14.0653C72.1413 12.4787 72.1862 11.0418 72.1862 9.97911C72.1862 6.22221 71.6923 3.06402 67.8755 3.06402C66.1243 3.06402 64.9718 3.61782 64.4779 6.01266H64.1785L63.6995 3.45318C62.1429 3.18376 60.4815 3.18376 58.9099 3.45318C58.7751 6.97059 58.7751 10.5179 58.9099 14.0653ZM80.0948 14.4694C84.645 14.4694 86.8453 12.1045 86.8453 8.81163C86.8453 5.45885 84.645 3.04905 80.0948 3.04905C75.5596 3.04905 73.3593 5.45885 73.3593 8.81163C73.3593 12.1045 75.5596 14.4694 80.0948 14.4694ZM78.164 8.76672C78.164 7.74892 78.9124 7.25498 80.1098 7.25498C81.2473 7.25498 82.0406 7.74892 82.0406 8.76672C82.0406 9.7995 81.2473 10.2635 80.1248 10.2635C78.9423 10.2635 78.164 9.7995 78.164 8.76672ZM94.1615 14.3946C96.1372 14.3946 97.7537 14.0803 97.8286 14.0803C97.9633 12.6583 97.9633 11.2364 97.8286 9.7995C95.763 10.3683 94.371 10.024 94.0118 8.4075C93.907 7.74892 93.907 7.19511 93.907 6.58143C95.5235 7.41963 97.5442 6.73111 97.6938 6.73111C97.8286 5.48879 97.8286 4.15666 97.6938 2.89937L93.8621 3.64776L93.8322 1.13318C91.572 1.59718 89.5963 2.34556 87.875 3.33343C87.7403 4.48595 87.7403 5.68337 87.875 6.83589L89.252 6.65627V8.60208C89.282 11.9099 89.7609 14.3946 94.1615 14.3946ZM99.3111 14.0653C101.107 14.4694 102.873 14.4694 104.67 14.2V7.68905C104.849 7.40466 105.418 7.12027 105.987 7.12027C106.69 7.12027 107.319 7.5244 107.319 8.81163V14.2C109.175 14.4694 111.031 14.4694 112.887 14.0653C112.887 13.3918 112.992 11.0418 112.992 9.97911C112.992 6.22221 112.423 3.06402 108.576 3.06402C106.81 3.06402 105.463 3.61782 105.223 6.02763H104.924L104.67 0.594339C102.873 0.324919 101.107 0.324919 99.3111 0.729048C99.1763 5.03976 99.1763 9.70969 99.3111 14.0653ZM120.486 14.4694C122.956 14.4694 125.815 14.0054 126.009 13.9755C126.144 12.6134 126.144 11.2813 126.009 9.93421C124.468 10.6527 122.267 10.967 120.89 10.952C119.663 10.952 118.78 10.3533 118.93 9.35047C122.342 10.0689 126.279 9.29059 126.279 6.19227C126.279 4.14169 124.932 3.04905 120.741 3.04905C116.939 3.04905 114.11 4.94995 114.11 8.64698C114.11 11.5058 115.427 14.4694 120.486 14.4694ZM118.93 7.70401C119.049 6.76105 119.917 6.25214 120.771 6.19227C121.474 6.14737 122.088 6.40182 122.088 7.18014C122.088 8.33266 120.082 8.51227 118.9 8.12311L118.93 7.70401ZM136.217 7.40466C136.352 6.0875 136.352 4.77034 136.217 3.45318C134.451 2.8844 132.834 3.52801 132.714 6.0426H132.415L131.846 3.45318C130.26 3.18376 129.137 3.18376 127.566 3.45318C127.431 7.00053 127.431 10.5179 127.566 14.0653C129.272 14.3347 130.933 14.3347 132.64 14.0653V7.95847C133.598 7.62918 135.034 7.35976 136.217 7.40466ZM6.75045 32.4545C8.72619 32.4545 10.0883 32.2299 12.0041 31.6911C12.1388 30.2243 12.1388 28.9221 12.0041 27.4552C7.72335 28.8023 5.70271 28.7125 5.68774 26.7069C5.70271 24.1773 11.3605 25.7489 11.9742 25.8836C12.1089 24.5365 12.0939 23.0697 11.9592 21.7376C11.1659 21.3933 8.60645 20.9892 6.76542 20.9892C2.51458 20.9892 0.464 23.7432 0.493935 26.6919C0.523871 29.6555 2.69419 32.4545 6.75045 32.4545ZM20.0046 32.4694C24.5548 32.4694 26.7551 30.1045 26.7551 26.8116C26.7551 23.4589 24.5548 21.049 20.0046 21.049C15.4694 21.049 13.2691 23.4589 13.2691 26.8116C13.2691 30.1045 15.4694 32.4694 20.0046 32.4694ZM18.0738 26.7667C18.0738 25.7489 18.8222 25.255 20.0196 25.255C21.1571 25.255 21.9504 25.7489 21.9504 26.7667C21.9504 27.7995 21.1571 28.2635 20.0346 28.2635C18.8521 28.2635 18.0738 27.7995 18.0738 26.7667ZM28.0243 32.0653C29.8503 32.3347 31.6764 32.3347 33.4875 32.0653C33.6372 27.575 33.6372 23.0847 33.4875 18.5943C31.6764 18.3249 29.8503 18.3249 28.0243 18.5943C27.8896 23.0847 27.8896 27.575 28.0243 32.0653ZM41.5061 32.4694C46.0563 32.4694 48.2566 30.1045 48.2566 26.8116C48.2566 23.4589 46.0563 21.049 41.5061 21.049C36.9709 21.049 34.7706 23.4589 34.7706 26.8116C34.7706 30.1045 36.9709 32.4694 41.5061 32.4694ZM39.5753 26.7667C39.5753 25.7489 40.3237 25.255 41.5211 25.255C42.6586 25.255 43.4519 25.7489 43.4519 26.7667C43.4519 27.7995 42.6586 28.2635 41.5361 28.2635C40.3536 28.2635 39.5753 27.7995 39.5753 26.7667ZM58.1771 25.4047C58.3118 24.0875 58.3118 22.7703 58.1771 21.4532C56.4109 20.8844 54.7944 21.528 54.6747 24.0426H54.3753L53.8066 21.4532C52.22 21.1838 51.0974 21.1838 49.5258 21.4532C49.3911 25.0005 49.3911 28.5179 49.5258 32.0653C51.2321 32.3347 52.8935 32.3347 54.5998 32.0653V25.9585C55.5578 25.6292 56.9947 25.3598 58.1771 25.4047ZM63.8358 33.3376C65.5271 33.607 67.2185 33.607 69.1792 33.4723L69.4337 29.6854H69.7331C70.1372 31.7659 71.6789 32.0354 73.0409 32.0354C75.7351 32.0354 77.3067 29.416 77.4115 26.6619C77.5013 23.7582 76.0943 21.1389 73.1307 21.1389C70.9754 21.1389 69.8528 23.0248 69.6133 24.0276H69.3289L68.7601 21.3185C67.2035 21.1838 65.3924 21.1838 63.8358 21.4532C63.7011 25.3747 63.7011 29.416 63.8358 33.3376ZM69.0146 27.7247V25.8537C69.4187 25.4346 69.9426 25.2999 70.4964 25.2999C71.619 25.2999 72.3973 25.7789 72.3973 26.8416C72.3973 27.8145 71.619 28.2785 70.5114 28.2785C69.9576 28.2785 69.4337 28.1438 69.0146 27.7247ZM81.6202 21.7825C83.4463 21.7825 84.7036 21.1987 84.7036 19.9115C84.7036 18.5494 83.4463 18.0106 81.6202 18.0106C79.8091 18.0106 78.5968 18.5494 78.5968 19.9115C78.5968 21.1987 79.8091 21.7825 81.6202 21.7825ZM78.9111 32.0653C80.7222 32.3347 82.5632 32.3347 84.3893 32.0653C84.524 29.1167 84.524 25.9285 84.3893 22.9799H78.9111C78.7614 25.9285 78.7614 29.1167 78.9111 32.0653ZM92.1279 32.4545C94.1037 32.4545 95.4658 32.2299 97.3816 31.6911C97.5163 30.2243 97.5163 28.9221 97.3816 27.4552C93.1008 28.8023 91.0802 28.7125 91.0652 26.7069C91.0802 24.1773 96.738 25.7489 97.3517 25.8836C97.4864 24.5365 97.4714 23.0697 97.3367 21.7376C96.5434 21.3933 93.9839 20.9892 92.1429 20.9892C87.8921 20.9892 85.8415 23.7432 85.8714 26.6919C85.9014 29.6555 88.0717 32.4545 92.1279 32.4545ZM112.612 21.4382C110.995 21.0341 108.196 21.0191 106.565 21.2736L105.412 24.8658H104.424C104.424 22.7703 104.409 20.6898 104.409 18.5943C102.583 18.3249 100.757 18.3249 98.931 18.729C98.7963 22.95 98.7963 27.8444 98.931 32.0653C100.757 32.4694 102.583 32.4694 104.409 32.2C104.409 30.7032 104.424 29.1915 104.424 27.6947H105.412L106.565 32.2C108.196 32.4545 110.995 32.4395 112.612 32.0354C112.043 30.0297 111.205 28.2336 110.112 26.6769C111.07 25.1652 111.923 23.369 112.612 21.4382ZM118.849 32.4694C121.319 32.4694 124.178 32.0054 124.372 31.9755C124.507 30.6134 124.507 29.2813 124.372 27.9342C122.831 28.6527 120.63 28.967 119.253 28.952C118.026 28.952 117.143 28.3533 117.292 27.3505C120.705 28.0689 124.642 27.2906 124.642 24.1923C124.642 22.1417 123.295 21.049 119.104 21.049C115.302 21.049 112.473 22.95 112.473 26.647C112.473 29.5058 113.79 32.4694 118.849 32.4694ZM117.292 25.704C117.412 24.761 118.28 24.2521 119.133 24.1923C119.837 24.1474 120.451 24.4018 120.451 25.1801C120.451 26.3327 118.445 26.5123 117.263 26.1231L117.292 25.704ZM134.58 25.4047C134.715 24.0875 134.715 22.7703 134.58 21.4532C132.814 20.8844 131.197 21.528 131.077 24.0426H130.778L130.209 21.4532C128.623 21.1838 127.5 21.1838 125.928 21.4532C125.794 25.0005 125.794 28.5179 125.928 32.0653C127.635 32.3347 129.296 32.3347 131.003 32.0653V25.9585C131.96 25.6292 133.397 25.3598 134.58 25.4047ZM138.488 32.5443C140.135 32.5443 141.272 31.9456 141.272 30.4937C141.272 29.0568 140.135 28.4581 138.488 28.4581C136.842 28.4581 135.749 29.0568 135.749 30.4937C135.749 31.9456 136.842 32.5443 138.488 32.5443Z" fill="url(#paint0_linear)"/>
<path d="M15.8957 1.35769C13.9799 0.953564 11.4503 0.938596 9.54942 1.32776L8.33703 7.95847H7.72335L6.52593 1.32776C4.62503 0.938596 2.11045 0.953564 0.194581 1.35769C0.748387 4.47098 1.4369 7.44956 2.2751 10.2934C2.88877 10.3832 3.74193 10.4581 4.69987 10.503C4.5951 11.6854 4.5951 12.8679 4.71484 14.0653C6.66064 14.3347 9.39974 14.3347 11.3605 14.0653C11.4803 12.8679 11.5102 11.6854 11.4054 10.503C12.3634 10.4581 13.2015 10.3832 13.8152 10.2934C14.6384 7.44956 15.3419 4.47098 15.8957 1.35769ZM22.1727 14.4694C24.6424 14.4694 27.5012 14.0054 27.6958 13.9755C27.8305 12.6134 27.8305 11.2813 27.6958 9.93421C26.1541 10.6527 23.9539 10.967 22.5768 10.952C21.3495 10.952 20.4664 10.3533 20.6161 9.35047C24.0287 10.0689 27.9652 9.29059 27.9652 6.19227C27.9652 4.14169 26.6181 3.04905 22.4272 3.04905C18.6254 3.04905 15.7965 4.94995 15.7965 8.64698C15.7965 11.5058 17.1136 14.4694 22.1727 14.4694ZM20.6161 7.70401C20.7358 6.76105 21.6039 6.25214 22.4571 6.19227C23.1606 6.14737 23.7743 6.40182 23.7743 7.18014C23.7743 8.33266 21.7686 8.51227 20.5861 8.12311L20.6161 7.70401ZM35.2991 14.3946C37.2748 14.3946 38.8913 14.0803 38.9662 14.0803C39.1009 12.6583 39.1009 11.2364 38.9662 9.7995C36.9006 10.3683 35.5086 10.024 35.1494 8.4075C35.0446 7.74892 35.0446 7.19511 35.0446 6.58143C36.6611 7.41963 38.6818 6.73111 38.8315 6.73111C38.9662 5.48879 38.9662 4.15666 38.8315 2.89937L34.9997 3.64776L34.9698 1.13318C32.7097 1.59718 30.7339 2.34556 29.0126 3.33343C28.8779 4.48595 28.8779 5.68337 29.0126 6.83589L30.3897 6.65627V8.60208C30.4196 11.9099 30.8986 14.3946 35.2991 14.3946ZM52.6765 14.2C54.2032 14.3347 55.8946 14.3347 57.4362 14.0653C57.4362 13.9007 57.5111 12.1345 57.5111 8.8715C57.5111 6.01266 57.062 3.04905 50.6858 3.04905C48.2161 3.04905 44.7885 3.49808 44.998 3.52801C44.8633 4.87511 44.8783 6.23718 45.013 7.58427C46.5397 6.85085 48.8897 6.5515 50.2817 6.5515C51.5839 6.56647 52.5268 7.13524 52.3322 8.18298C48.8298 7.40466 44.5041 8.13808 44.5041 11.3412C44.5041 13.3618 45.926 14.4694 48.3359 14.4694C51.6737 14.4694 51.7934 12.2243 51.9131 12.0297H52.2125L52.6765 14.2ZM49.2189 10.473C49.2189 9.27563 51.1648 9.06608 52.4669 9.50014V9.8893C52.3322 10.7874 51.3444 11.4909 50.4762 11.4909C49.7578 11.4909 49.2189 11.2065 49.2189 10.473ZM58.9099 14.0653C60.6012 14.3347 62.2776 14.3347 63.9839 14.0653V7.68905C64.1635 7.40466 64.7173 7.12027 65.2861 7.12027C65.9597 7.12027 66.5733 7.5244 66.5733 8.81163V14.0653C68.4293 14.3347 70.2853 14.3347 72.1413 14.0653C72.1413 12.4787 72.1862 11.0418 72.1862 9.97911C72.1862 6.22221 71.6923 3.06402 67.8755 3.06402C66.1243 3.06402 64.9718 3.61782 64.4779 6.01266H64.1785L63.6995 3.45318C62.1429 3.18376 60.4815 3.18376 58.9099 3.45318C58.7751 6.97059 58.7751 10.5179 58.9099 14.0653ZM80.0948 14.4694C84.645 14.4694 86.8453 12.1045 86.8453 8.81163C86.8453 5.45885 84.645 3.04905 80.0948 3.04905C75.5596 3.04905 73.3593 5.45885 73.3593 8.81163C73.3593 12.1045 75.5596 14.4694 80.0948 14.4694ZM78.164 8.76672C78.164 7.74892 78.9124 7.25498 80.1098 7.25498C81.2473 7.25498 82.0406 7.74892 82.0406 8.76672C82.0406 9.7995 81.2473 10.2635 80.1248 10.2635C78.9423 10.2635 78.164 9.7995 78.164 8.76672ZM94.1615 14.3946C96.1372 14.3946 97.7537 14.0803 97.8286 14.0803C97.9633 12.6583 97.9633 11.2364 97.8286 9.7995C95.763 10.3683 94.371 10.024 94.0118 8.4075C93.907 7.74892 93.907 7.19511 93.907 6.58143C95.5235 7.41963 97.5442 6.73111 97.6938 6.73111C97.8286 5.48879 97.8286 4.15666 97.6938 2.89937L93.8621 3.64776L93.8322 1.13318C91.572 1.59718 89.5963 2.34556 87.875 3.33343C87.7403 4.48595 87.7403 5.68337 87.875 6.83589L89.252 6.65627V8.60208C89.282 11.9099 89.7609 14.3946 94.1615 14.3946ZM99.3111 14.0653C101.107 14.4694 102.873 14.4694 104.67 14.2V7.68905C104.849 7.40466 105.418 7.12027 105.987 7.12027C106.69 7.12027 107.319 7.5244 107.319 8.81163V14.2C109.175 14.4694 111.031 14.4694 112.887 14.0653C112.887 13.3918 112.992 11.0418 112.992 9.97911C112.992 6.22221 112.423 3.06402 108.576 3.06402C106.81 3.06402 105.463 3.61782 105.223 6.02763H104.924L104.67 0.594339C102.873 0.324919 101.107 0.324919 99.3111 0.729048C99.1763 5.03976 99.1763 9.70969 99.3111 14.0653ZM120.486 14.4694C122.956 14.4694 125.815 14.0054 126.009 13.9755C126.144 12.6134 126.144 11.2813 126.009 9.93421C124.468 10.6527 122.267 10.967 120.89 10.952C119.663 10.952 118.78 10.3533 118.93 9.35047C122.342 10.0689 126.279 9.29059 126.279 6.19227C126.279 4.14169 124.932 3.04905 120.741 3.04905C116.939 3.04905 114.11 4.94995 114.11 8.64698C114.11 11.5058 115.427 14.4694 120.486 14.4694ZM118.93 7.70401C119.049 6.76105 119.917 6.25214 120.771 6.19227C121.474 6.14737 122.088 6.40182 122.088 7.18014C122.088 8.33266 120.082 8.51227 118.9 8.12311L118.93 7.70401ZM136.217 7.40466C136.352 6.0875 136.352 4.77034 136.217 3.45318C134.451 2.8844 132.834 3.52801 132.714 6.0426H132.415L131.846 3.45318C130.26 3.18376 129.137 3.18376 127.566 3.45318C127.431 7.00053 127.431 10.5179 127.566 14.0653C129.272 14.3347 130.933 14.3347 132.64 14.0653V7.95847C133.598 7.62918 135.034 7.35976 136.217 7.40466ZM6.75045 32.4545C8.72619 32.4545 10.0883 32.2299 12.0041 31.6911C12.1388 30.2243 12.1388 28.9221 12.0041 27.4552C7.72335 28.8023 5.70271 28.7125 5.68774 26.7069C5.70271 24.1773 11.3605 25.7489 11.9742 25.8836C12.1089 24.5365 12.0939 23.0697 11.9592 21.7376C11.1659 21.3933 8.60645 20.9892 6.76542 20.9892C2.51458 20.9892 0.464 23.7432 0.493935 26.6919C0.523871 29.6555 2.69419 32.4545 6.75045 32.4545ZM20.0046 32.4694C24.5548 32.4694 26.7551 30.1045 26.7551 26.8116C26.7551 23.4589 24.5548 21.049 20.0046 21.049C15.4694 21.049 13.2691 23.4589 13.2691 26.8116C13.2691 30.1045 15.4694 32.4694 20.0046 32.4694ZM18.0738 26.7667C18.0738 25.7489 18.8222 25.255 20.0196 25.255C21.1571 25.255 21.9504 25.7489 21.9504 26.7667C21.9504 27.7995 21.1571 28.2635 20.0346 28.2635C18.8521 28.2635 18.0738 27.7995 18.0738 26.7667ZM28.0243 32.0653C29.8503 32.3347 31.6764 32.3347 33.4875 32.0653C33.6372 27.575 33.6372 23.0847 33.4875 18.5943C31.6764 18.3249 29.8503 18.3249 28.0243 18.5943C27.8896 23.0847 27.8896 27.575 28.0243 32.0653ZM41.5061 32.4694C46.0563 32.4694 48.2566 30.1045 48.2566 26.8116C48.2566 23.4589 46.0563 21.049 41.5061 21.049C36.9709 21.049 34.7706 23.4589 34.7706 26.8116C34.7706 30.1045 36.9709 32.4694 41.5061 32.4694ZM39.5753 26.7667C39.5753 25.7489 40.3237 25.255 41.5211 25.255C42.6586 25.255 43.4519 25.7489 43.4519 26.7667C43.4519 27.7995 42.6586 28.2635 41.5361 28.2635C40.3536 28.2635 39.5753 27.7995 39.5753 26.7667ZM58.1771 25.4047C58.3118 24.0875 58.3118 22.7703 58.1771 21.4532C56.4109 20.8844 54.7944 21.528 54.6747 24.0426H54.3753L53.8066 21.4532C52.22 21.1838 51.0974 21.1838 49.5258 21.4532C49.3911 25.0005 49.3911 28.5179 49.5258 32.0653C51.2321 32.3347 52.8935 32.3347 54.5998 32.0653V25.9585C55.5578 25.6292 56.9947 25.3598 58.1771 25.4047ZM63.8358 33.3376C65.5271 33.607 67.2185 33.607 69.1792 33.4723L69.4337 29.6854H69.7331C70.1372 31.7659 71.6789 32.0354 73.0409 32.0354C75.7351 32.0354 77.3067 29.416 77.4115 26.6619C77.5013 23.7582 76.0943 21.1389 73.1307 21.1389C70.9754 21.1389 69.8528 23.0248 69.6133 24.0276H69.3289L68.7601 21.3185C67.2035 21.1838 65.3924 21.1838 63.8358 21.4532C63.7011 25.3747 63.7011 29.416 63.8358 33.3376ZM69.0146 27.7247V25.8537C69.4187 25.4346 69.9426 25.2999 70.4964 25.2999C71.619 25.2999 72.3973 25.7789 72.3973 26.8416C72.3973 27.8145 71.619 28.2785 70.5114 28.2785C69.9576 28.2785 69.4337 28.1438 69.0146 27.7247ZM81.6202 21.7825C83.4463 21.7825 84.7036 21.1987 84.7036 19.9115C84.7036 18.5494 83.4463 18.0106 81.6202 18.0106C79.8091 18.0106 78.5968 18.5494 78.5968 19.9115C78.5968 21.1987 79.8091 21.7825 81.6202 21.7825ZM78.9111 32.0653C80.7222 32.3347 82.5632 32.3347 84.3893 32.0653C84.524 29.1167 84.524 25.9285 84.3893 22.9799H78.9111C78.7614 25.9285 78.7614 29.1167 78.9111 32.0653ZM92.1279 32.4545C94.1037 32.4545 95.4658 32.2299 97.3816 31.6911C97.5163 30.2243 97.5163 28.9221 97.3816 27.4552C93.1008 28.8023 91.0802 28.7125 91.0652 26.7069C91.0802 24.1773 96.738 25.7489 97.3517 25.8836C97.4864 24.5365 97.4714 23.0697 97.3367 21.7376C96.5434 21.3933 93.9839 20.9892 92.1429 20.9892C87.8921 20.9892 85.8415 23.7432 85.8714 26.6919C85.9014 29.6555 88.0717 32.4545 92.1279 32.4545ZM112.612 21.4382C110.995 21.0341 108.196 21.0191 106.565 21.2736L105.412 24.8658H104.424C104.424 22.7703 104.409 20.6898 104.409 18.5943C102.583 18.3249 100.757 18.3249 98.931 18.729C98.7963 22.95 98.7963 27.8444 98.931 32.0653C100.757 32.4694 102.583 32.4694 104.409 32.2C104.409 30.7032 104.424 29.1915 104.424 27.6947H105.412L106.565 32.2C108.196 32.4545 110.995 32.4395 112.612 32.0354C112.043 30.0297 111.205 28.2336 110.112 26.6769C111.07 25.1652 111.923 23.369 112.612 21.4382ZM118.849 32.4694C121.319 32.4694 124.178 32.0054 124.372 31.9755C124.507 30.6134 124.507 29.2813 124.372 27.9342C122.831 28.6527 120.63 28.967 119.253 28.952C118.026 28.952 117.143 28.3533 117.292 27.3505C120.705 28.0689 124.642 27.2906 124.642 24.1923C124.642 22.1417 123.295 21.049 119.104 21.049C115.302 21.049 112.473 22.95 112.473 26.647C112.473 29.5058 113.79 32.4694 118.849 32.4694ZM117.292 25.704C117.412 24.761 118.28 24.2521 119.133 24.1923C119.837 24.1474 120.451 24.4018 120.451 25.1801C120.451 26.3327 118.445 26.5123 117.263 26.1231L117.292 25.704ZM134.58 25.4047C134.715 24.0875 134.715 22.7703 134.58 21.4532C132.814 20.8844 131.197 21.528 131.077 24.0426H130.778L130.209 21.4532C128.623 21.1838 127.5 21.1838 125.928 21.4532C125.794 25.0005 125.794 28.5179 125.928 32.0653C127.635 32.3347 129.296 32.3347 131.003 32.0653V25.9585C131.96 25.6292 133.397 25.3598 134.58 25.4047ZM138.488 32.5443C140.135 32.5443 141.272 31.9456 141.272 30.4937C141.272 29.0568 140.135 28.4581 138.488 28.4581C136.842 28.4581 135.749 29.0568 135.749 30.4937C135.749 31.9456 136.842 32.5443 138.488 32.5443Z" fill="url(#paint1_linear)" fill-opacity="0.5"/>
<defs>
<linearGradient id="paint0_linear" x1="50.5644" y1="15.4461" x2="102.832" y2="-17.554" gradientUnits="userSpaceOnUse">
<stop stop-color="#FF5C00"/>
<stop offset="0.348764" stop-color="#FDB675"/>
<stop offset="0.571416" stop-color="#F50000"/>
<stop offset="0.8125" stop-color="#B6A8FE"/>
<stop offset="1" stop-color="#B6A8FE"/>
</linearGradient>
<linearGradient id="paint1_linear" x1="73.8568" y1="-14.0893" x2="73.8728" y2="49.1311" gradientUnits="userSpaceOnUse">
<stop stop-color="white"/>
<stop offset="1" stop-color="white" stop-opacity="0"/>
</linearGradient>
</defs>
</svg>
