<svg width="120" height="37" viewBox="0 0 120 37" fill="none" xmlns="http://www.w3.org/2000/svg">
<path d="M1.6684 36.5422C2.7089 36.6857 3.73147 36.6857 4.93343 36.596L5.07695 32.2546H5.38193C6.09952 34.0486 7.87556 35.1609 10.1001 35.1609C13.4728 35.1609 15.6076 32.434 15.6614 28.8461C15.7152 24.5764 13.5983 21.9931 10.1539 21.9931C7.5347 21.9931 5.956 23.9306 5.32811 25.1684H5.04107L4.71816 21.9751C3.73147 21.8854 2.61921 21.8854 1.65046 22.0469C1.54282 26.8906 1.54282 31.6985 1.6684 36.5422ZM4.87962 30.5324V26.8189C6.08158 25.0608 7.39118 24.5764 8.57521 24.5764C10.9074 24.5764 12.5399 25.9219 12.5399 28.9358C12.5399 31.4653 10.9074 32.7749 8.57521 32.7749C7.39118 32.7749 6.09952 32.2905 4.87962 30.5324ZM28.4068 35.0173C29.3217 35.107 30.3443 35.107 31.2592 34.9635C31.2592 33.923 31.331 30.4248 31.331 28.559C31.331 25.3837 30.8825 21.8316 24.2268 21.8316C21.3923 21.8316 18.6834 22.2622 18.2349 22.4236C18.1452 23.3027 18.1452 24.1458 18.2349 25.0428C19.993 24.4508 22.3252 24.1458 24.0295 24.1638C26.8819 24.1997 28.2274 25.294 28.1736 27.6441C23.1145 26.2627 17.7685 27.2674 17.7685 31.6985C17.7685 34.0306 19.3113 35.3582 22.6302 35.3582C25.9849 35.3582 27.0254 33.6719 27.7789 32.4519H28.1018L28.4068 35.0173ZM21.0156 31.232C21.0156 28.1285 25.7876 28.0388 28.1736 28.8819V29.2587C28.1736 31.3576 26.2002 33.3131 24.0295 33.3131C22.1817 33.3131 21.0156 32.8287 21.0156 31.232ZM34.2718 34.9456C35.3841 35.107 36.4425 35.107 37.5369 34.9456C37.6624 29.5636 37.6624 24.092 37.5369 18.7101C36.4425 18.5486 35.3841 18.5486 34.2718 18.7101C34.1462 24.092 34.1462 29.5636 34.2718 34.9456ZM47.0299 35.3402C49.9182 35.3402 52.3042 34.9097 52.968 34.7482C53.0577 33.8692 53.0577 33.044 52.968 32.1649C51.192 32.739 48.9674 33.044 47.2273 33.026C45.218 32.9722 43.4061 31.8599 43.442 29.6354C48.2319 30.7656 53.3268 29.4201 53.3268 25.599C53.3268 23.1412 51.8198 21.8316 47.5143 21.8316C43.2267 21.8316 40.1231 23.9306 40.1231 28.6308C40.1231 31.7882 41.5942 35.3402 47.0299 35.3402ZM43.442 27.9132C43.4958 25.294 45.3436 24.2535 47.5502 24.2355C49.1289 24.2176 50.3488 24.684 50.3488 26.2627C50.3488 28.8102 45.7562 29.1869 43.424 28.3258L43.442 27.9132ZM61.0843 35.2685C63.0936 35.2685 64.4211 34.8918 64.457 34.8918C64.5646 33.9768 64.5646 33.0798 64.457 32.1829C62.2325 32.7569 60.4923 32.9184 60.295 30.4965C60.1156 27.967 60.277 26.191 60.277 24.3252C61.7122 24.7917 63.4165 24.4329 64.3852 24.4149C64.4929 23.5897 64.4929 22.4595 64.3852 21.6522L60.2232 22.1186L60.1873 19.7506C58.3934 20.3426 56.8685 21.132 55.4333 21.9931C55.3257 22.7286 55.3257 23.7332 55.4333 24.4508L57.3708 24.3611C57.3708 26.1192 57.3708 28.2182 57.3349 30.4965C57.317 33.3489 57.909 35.2685 61.0843 35.2685ZM72.2967 35.2685C74.3059 35.2685 75.6335 34.8918 75.6694 34.8918C75.777 33.9768 75.777 33.0798 75.6694 32.1829C73.4448 32.7569 71.7047 32.9184 71.5073 30.4965C71.3279 27.967 71.4894 26.191 71.4894 24.3252C72.9246 24.7917 74.6288 24.4329 75.5976 24.4149C75.7052 23.5897 75.7052 22.4595 75.5976 21.6522L71.4356 22.1186L71.3997 19.7506C69.6057 20.3426 68.0808 21.132 66.6457 21.9931C66.538 22.7286 66.538 23.7332 66.6457 24.4508L68.5831 24.3611C68.5831 26.1192 68.5831 28.2182 68.5473 30.4965C68.5293 33.3489 69.1213 35.2685 72.2967 35.2685ZM84.8366 35.3402C87.7249 35.3402 90.1109 34.9097 90.7746 34.7482C90.8643 33.8692 90.8643 33.044 90.7746 32.1649C88.9986 32.739 86.7741 33.044 85.0339 33.026C83.0247 32.9722 81.2127 31.8599 81.2486 29.6354C86.0385 30.7656 91.1334 29.4201 91.1334 25.599C91.1334 23.1412 89.6265 21.8316 85.3209 21.8316C81.0333 21.8316 77.9298 23.9306 77.9298 28.6308C77.9298 31.7882 79.4008 35.3402 84.8366 35.3402ZM81.2486 27.9132C81.3024 25.294 83.1502 24.2535 85.3568 24.2355C86.9355 24.2176 88.1554 24.684 88.1554 26.2627C88.1554 28.8102 83.5629 29.1869 81.2307 28.3258L81.2486 27.9132Z" fill="url(#paint0_linear)"/>
<path d="M1.6684 36.5422C2.7089 36.6857 3.73147 36.6857 4.93343 36.596L5.07695 32.2546H5.38193C6.09952 34.0486 7.87556 35.1609 10.1001 35.1609C13.4728 35.1609 15.6076 32.434 15.6614 28.8461C15.7152 24.5764 13.5983 21.9931 10.1539 21.9931C7.5347 21.9931 5.956 23.9306 5.32811 25.1684H5.04107L4.71816 21.9751C3.73147 21.8854 2.61921 21.8854 1.65046 22.0469C1.54282 26.8906 1.54282 31.6985 1.6684 36.5422ZM4.87962 30.5324V26.8189C6.08158 25.0608 7.39118 24.5764 8.57521 24.5764C10.9074 24.5764 12.5399 25.9219 12.5399 28.9358C12.5399 31.4653 10.9074 32.7749 8.57521 32.7749C7.39118 32.7749 6.09952 32.2905 4.87962 30.5324ZM28.4068 35.0173C29.3217 35.107 30.3443 35.107 31.2592 34.9635C31.2592 33.923 31.331 30.4248 31.331 28.559C31.331 25.3837 30.8825 21.8316 24.2268 21.8316C21.3923 21.8316 18.6834 22.2622 18.2349 22.4236C18.1452 23.3027 18.1452 24.1458 18.2349 25.0428C19.993 24.4508 22.3252 24.1458 24.0295 24.1638C26.8819 24.1997 28.2274 25.294 28.1736 27.6441C23.1145 26.2627 17.7685 27.2674 17.7685 31.6985C17.7685 34.0306 19.3113 35.3582 22.6302 35.3582C25.9849 35.3582 27.0254 33.6719 27.7789 32.4519H28.1018L28.4068 35.0173ZM21.0156 31.232C21.0156 28.1285 25.7876 28.0388 28.1736 28.8819V29.2587C28.1736 31.3576 26.2002 33.3131 24.0295 33.3131C22.1817 33.3131 21.0156 32.8287 21.0156 31.232ZM34.2718 34.9456C35.3841 35.107 36.4425 35.107 37.5369 34.9456C37.6624 29.5636 37.6624 24.092 37.5369 18.7101C36.4425 18.5486 35.3841 18.5486 34.2718 18.7101C34.1462 24.092 34.1462 29.5636 34.2718 34.9456ZM47.0299 35.3402C49.9182 35.3402 52.3042 34.9097 52.968 34.7482C53.0577 33.8692 53.0577 33.044 52.968 32.1649C51.192 32.739 48.9674 33.044 47.2273 33.026C45.218 32.9722 43.4061 31.8599 43.442 29.6354C48.2319 30.7656 53.3268 29.4201 53.3268 25.599C53.3268 23.1412 51.8198 21.8316 47.5143 21.8316C43.2267 21.8316 40.1231 23.9306 40.1231 28.6308C40.1231 31.7882 41.5942 35.3402 47.0299 35.3402ZM43.442 27.9132C43.4958 25.294 45.3436 24.2535 47.5502 24.2355C49.1289 24.2176 50.3488 24.684 50.3488 26.2627C50.3488 28.8102 45.7562 29.1869 43.424 28.3258L43.442 27.9132ZM61.0843 35.2685C63.0936 35.2685 64.4211 34.8918 64.457 34.8918C64.5646 33.9768 64.5646 33.0798 64.457 32.1829C62.2325 32.7569 60.4923 32.9184 60.295 30.4965C60.1156 27.967 60.277 26.191 60.277 24.3252C61.7122 24.7917 63.4165 24.4329 64.3852 24.4149C64.4929 23.5897 64.4929 22.4595 64.3852 21.6522L60.2232 22.1186L60.1873 19.7506C58.3934 20.3426 56.8685 21.132 55.4333 21.9931C55.3257 22.7286 55.3257 23.7332 55.4333 24.4508L57.3708 24.3611C57.3708 26.1192 57.3708 28.2182 57.3349 30.4965C57.317 33.3489 57.909 35.2685 61.0843 35.2685ZM72.2967 35.2685C74.3059 35.2685 75.6335 34.8918 75.6694 34.8918C75.777 33.9768 75.777 33.0798 75.6694 32.1829C73.4448 32.7569 71.7047 32.9184 71.5073 30.4965C71.3279 27.967 71.4894 26.191 71.4894 24.3252C72.9246 24.7917 74.6288 24.4329 75.5976 24.4149C75.7052 23.5897 75.7052 22.4595 75.5976 21.6522L71.4356 22.1186L71.3997 19.7506C69.6057 20.3426 68.0808 21.132 66.6457 21.9931C66.538 22.7286 66.538 23.7332 66.6457 24.4508L68.5831 24.3611C68.5831 26.1192 68.5831 28.2182 68.5473 30.4965C68.5293 33.3489 69.1213 35.2685 72.2967 35.2685ZM84.8366 35.3402C87.7249 35.3402 90.1109 34.9097 90.7746 34.7482C90.8643 33.8692 90.8643 33.044 90.7746 32.1649C88.9986 32.739 86.7741 33.044 85.0339 33.026C83.0247 32.9722 81.2127 31.8599 81.2486 29.6354C86.0385 30.7656 91.1334 29.4201 91.1334 25.599C91.1334 23.1412 89.6265 21.8316 85.3209 21.8316C81.0333 21.8316 77.9298 23.9306 77.9298 28.6308C77.9298 31.7882 79.4008 35.3402 84.8366 35.3402ZM81.2486 27.9132C81.3024 25.294 83.1502 24.2535 85.3568 24.2355C86.9355 24.2176 88.1554 24.684 88.1554 26.2627C88.1554 28.8102 83.5629 29.1869 81.2307 28.3258L81.2486 27.9132Z" fill="url(#paint1_linear)" fill-opacity="0.5"/>
<path d="M96.9128 16.2373C95.9839 17.1286 95.2653 18.052 94.8248 19.4434C94.3948 18.052 93.5971 17.172 92.6943 16.2904C93.9595 15.1991 94.3583 14.4502 94.8248 13.2698C95.3023 14.3938 95.7005 15.1991 96.9128 16.2373Z" stroke="url(#paint2_linear)" stroke-width="0.612679"/>
<path d="M96.821 16.6873L97.3461 16.1394L96.7908 15.6221C96.0735 14.954 95.8506 14.4686 95.5416 13.6773L94.8194 11.8279L94.1413 13.6939C93.9859 14.1217 93.8577 14.4251 93.681 14.7116C93.5065 14.9944 93.2672 15.2884 92.8672 15.6636L92.3205 16.1765L92.8343 16.7223C93.4317 17.3568 93.8791 17.9081 94.1248 18.7729L94.836 21.2758L95.563 18.7774C95.823 17.8841 96.2389 17.2949 96.821 16.6873Z" stroke="url(#paint3_linear)" stroke-width="1.4965"/>
<path d="M96.9584 16.2848L97.0079 16.2373L96.9584 16.1898C96.0959 15.3622 95.3589 14.3587 94.8854 13.244L94.8226 13.0963L94.7636 13.2456C94.3005 14.4173 93.6066 15.4494 92.6523 16.2397L92.5959 16.2863L92.6483 16.3375C93.5454 17.2135 94.2987 18.2816 94.7635 19.4675L94.8248 19.6238L94.8861 19.4675C95.3614 18.255 96.0374 17.1685 96.9584 16.2848Z" stroke="url(#paint4_linear)" stroke-width="0.131637"/>
<path d="M96.9584 16.2848L97.0079 16.2373L96.9584 16.1898C96.0959 15.3622 95.3589 14.3587 94.8854 13.244L94.8226 13.0963L94.7636 13.2456C94.3005 14.4173 93.6066 15.4494 92.6523 16.2397L92.5959 16.2863L92.6483 16.3375C93.5454 17.2135 94.2987 18.2816 94.7635 19.4675L94.8248 19.6238L94.8861 19.4675C95.3614 18.255 96.0374 17.1685 96.9584 16.2848Z" stroke="url(#paint5_linear)" stroke-width="0.131637"/>
<path d="M109 16.216L96.9583 16.1345M96.9583 16.1345H96.6681V16.4062L96.9583 16.1345ZM96.9583 16.1345L96.6681 15.8628" stroke="url(#paint6_linear)" stroke-width="0.136399"/>
<path d="M80.6107 16.053L92.6524 16.1345M92.6524 16.1345H92.9426V15.8628L92.6524 16.1345ZM92.6524 16.1345L92.9426 16.4062" stroke="url(#paint7_linear)" stroke-width="0.136399"/>
<path d="M94.8114 0.747816L94.8315 12.0237M94.8315 12.0237L94.8299 12.2954L94.5398 12.2939L94.8315 12.0237ZM94.8315 12.0237L95.1201 12.2969" stroke="url(#paint8_linear)" stroke-width="0.136399"/>
<path d="M94.8115 33.4673L94.8316 22.1914M94.8316 22.1914L94.83 21.9197L94.5399 21.9212L94.8316 22.1914ZM94.8316 22.1914L95.1202 21.9182" stroke="url(#paint9_linear)" stroke-width="0.136399"/>
<defs>
<linearGradient id="paint0_linear" x1="40.8301" y1="37.0248" x2="100.818" y2="31.6048" gradientUnits="userSpaceOnUse">
<stop stop-color="#FF5C00"/>
<stop offset="0.348764" stop-color="#FDB675"/>
<stop offset="0.571416" stop-color="#F50000"/>
<stop offset="0.8125" stop-color="#B6A8FE"/>
<stop offset="1" stop-color="#B6A8FE"/>
</linearGradient>
<linearGradient id="paint1_linear" x1="59.6376" y1="1.40506" x2="59.6664" y2="77.634" gradientUnits="userSpaceOnUse">
<stop stop-color="white"/>
<stop offset="1" stop-color="white" stop-opacity="0"/>
</linearGradient>
<linearGradient id="paint2_linear" x1="68.7935" y1="20.1549" x2="78.0775" y2="37.8419" gradientUnits="userSpaceOnUse">
<stop stop-color="#FF5C00"/>
<stop offset="0.536458" stop-color="#FDB675"/>
<stop offset="1" stop-color="#F50000"/>
</linearGradient>
<linearGradient id="paint3_linear" x1="76.9397" y1="19.1006" x2="84.2074" y2="31.8298" gradientUnits="userSpaceOnUse">
<stop stop-color="#FF5C00"/>
<stop offset="0.536458" stop-color="#FDB675"/>
<stop offset="1" stop-color="#F50000"/>
</linearGradient>
<linearGradient id="paint4_linear" x1="94.77" y1="3.72487" x2="94.8827" y2="42.6521" gradientUnits="userSpaceOnUse">
<stop stop-color="#FF9A60"/>
<stop offset="0.94571" stop-color="#F36F76"/>
</linearGradient>
<linearGradient id="paint5_linear" x1="68.7935" y1="20.1549" x2="78.0775" y2="37.8419" gradientUnits="userSpaceOnUse">
<stop stop-color="#FF5C00"/>
<stop offset="0.536458" stop-color="#FDB675"/>
<stop offset="1" stop-color="#F50000"/>
</linearGradient>
<linearGradient id="paint6_linear" x1="97.1324" y1="15.8085" x2="102.824" y2="16.489" gradientUnits="userSpaceOnUse">
<stop stop-color="#FDA862"/>
<stop offset="1" stop-color="#F84C31" stop-opacity="0"/>
</linearGradient>
<linearGradient id="paint7_linear" x1="92.4783" y1="16.4606" x2="86.7866" y2="15.78" gradientUnits="userSpaceOnUse">
<stop stop-color="#FD9E56"/>
<stop offset="1" stop-color="#F84C31" stop-opacity="0"/>
</linearGradient>
<linearGradient id="paint8_linear" x1="95.1807" y1="11.8625" x2="94.648" y2="6.51294" gradientUnits="userSpaceOnUse">
<stop stop-color="#FD9348"/>
<stop offset="1" stop-color="#F84C31" stop-opacity="0"/>
</linearGradient>
<linearGradient id="paint9_linear" x1="95.1808" y1="22.3526" x2="94.6481" y2="27.7021" gradientUnits="userSpaceOnUse">
<stop stop-color="#F96A44"/>
<stop offset="1" stop-color="#F84C31" stop-opacity="0"/>
</linearGradient>
</defs>
</svg>
