<svg width="25" height="25" viewBox="0 0 25 25" fill="none" xmlns="http://www.w3.org/2000/svg">
<g opacity="0.35">
<g filter="url(#filter0_d)">
<path d="M12.4999 20.7666H21.5749" stroke="white" stroke-width="2.02563" stroke-linecap="round" stroke-linejoin="round"/>
</g>
<g filter="url(#filter1_d)">
<path d="M17.0375 4.12915C17.4387 3.72801 17.9827 3.50266 18.55 3.50266C18.8309 3.50266 19.1091 3.55798 19.3686 3.66548C19.6281 3.77297 19.8639 3.93053 20.0625 4.12915C20.2611 4.32778 20.4187 4.56358 20.5262 4.82309C20.6337 5.08261 20.689 5.36075 20.689 5.64165C20.689 5.92254 20.6337 6.20069 20.5262 6.46021C20.4187 6.71972 20.2611 6.95552 20.0625 7.15415L7.45837 19.7583L3.42505 20.7666L4.43338 16.7333L17.0375 4.12915Z" stroke="white" stroke-width="2.02563" stroke-linecap="round" stroke-linejoin="round"/>
</g>
</g>
<defs>
<filter id="filter0_d" x="10.4871" y="19.7538" width="13.1006" height="4.02563" filterUnits="userSpaceOnUse" color-interpolation-filters="sRGB">
<feFlood flood-opacity="0" result="BackgroundImageFix"/>
<feColorMatrix in="SourceAlpha" type="matrix" values="0 0 0 0 0 0 0 0 0 0 0 0 0 0 0 0 0 0 127 0"/>
<feOffset dy="1"/>
<feGaussianBlur stdDeviation="0.5"/>
<feColorMatrix type="matrix" values="0 0 0 0 0 0 0 0 0 0 0 0 0 0 0 0 0 0 0.5 0"/>
<feBlend mode="normal" in2="BackgroundImageFix" result="effect1_dropShadow"/>
<feBlend mode="normal" in="SourceGraphic" in2="effect1_dropShadow" result="shape"/>
</filter>
<filter id="filter1_d" x="1.41223" y="2.48984" width="21.2896" height="21.2896" filterUnits="userSpaceOnUse" color-interpolation-filters="sRGB">
<feFlood flood-opacity="0" result="BackgroundImageFix"/>
<feColorMatrix in="SourceAlpha" type="matrix" values="0 0 0 0 0 0 0 0 0 0 0 0 0 0 0 0 0 0 127 0"/>
<feOffset dy="1"/>
<feGaussianBlur stdDeviation="0.5"/>
<feColorMatrix type="matrix" values="0 0 0 0 0 0 0 0 0 0 0 0 0 0 0 0 0 0 0.5 0"/>
<feBlend mode="normal" in2="BackgroundImageFix" result="effect1_dropShadow"/>
<feBlend mode="normal" in="SourceGraphic" in2="effect1_dropShadow" result="shape"/>
</filter>
</defs>
</svg>
