<svg width="11" height="12" viewBox="0 0 11 12" fill="none" xmlns="http://www.w3.org/2000/svg">
<circle cx="1.80717" cy="2.15006" r="1.65" fill="#747474"/>
<circle cx="6.36436" cy="6.07863" r="1.65" fill="#747474"/>
<circle cx="3.2215" cy="10.0072" r="1.65" fill="#747474"/>
<path d="M0.785767 2.0715C0.785767 1.63756 1.13754 1.28578 1.57148 1.28578H10.2143C10.6483 1.28578 11.0001 1.63756 11.0001 2.0715V2.0715C11.0001 2.50543 10.6483 2.85721 10.2143 2.85721H1.57148C1.13754 2.85721 0.785767 2.50543 0.785767 2.0715V2.0715Z" fill="#747474"/>
<path d="M6.10352e-05 6.00005C6.10352e-05 5.56612 0.351837 5.21434 0.785776 5.21434H10.2143C10.6483 5.21434 11.0001 5.56612 11.0001 6.00005V6.00005C11.0001 6.43399 10.6483 6.78577 10.2143 6.78577H0.785775C0.351837 6.78577 6.10352e-05 6.43399 6.10352e-05 6.00005V6.00005Z" fill="#747474"/>
<path d="M6.10352e-05 9.92863C6.10352e-05 9.49469 0.351837 9.14291 0.785776 9.14291H10.2143C10.6483 9.14291 11.0001 9.49469 11.0001 9.92863V9.92863C11.0001 10.3626 10.6483 10.7143 10.2143 10.7143H0.785775C0.351837 10.7143 6.10352e-05 10.3626 6.10352e-05 9.92863V9.92863Z" fill="#747474"/>
</svg>
