<svg width="227" height="50" viewBox="0 0 227 50" fill="none" xmlns="http://www.w3.org/2000/svg">
<g clip-path="url(#clip0)">
<rect width="227" height="50" fill="white"/>
<path d="M138.796 16.823C136.679 18.8544 135.041 20.9587 134.038 24.1299C133.058 20.9587 131.24 18.9532 129.182 16.944C132.066 14.457 132.974 12.7501 134.038 10.0601C135.126 12.6217 136.033 14.457 138.796 16.823Z" stroke="url(#paint0_linear)" stroke-width="1.3963"/>
<path d="M137.356 16.6684C135.9 18.1882 134.773 19.7626 134.083 22.1351C133.409 19.7626 132.158 18.2621 130.743 16.7589C132.726 14.8983 133.351 13.6213 134.083 11.6086C134.831 13.5252 135.455 14.8983 137.356 16.6684Z" stroke="url(#paint1_linear)" stroke-width="1.3963"/>
<path d="M138.85 16.8791L138.909 16.823L138.85 16.7669C136.878 14.8751 135.193 12.5803 134.109 10.0297L134.035 9.85518L133.965 10.0315C132.906 12.7114 131.318 15.0743 129.133 16.8841L129.066 16.9392L129.128 16.9996C131.179 19.0021 132.902 21.4449 133.965 24.1582L134.038 24.3428L134.11 24.1582C135.196 21.3871 136.742 18.9014 138.85 16.8791Z" stroke="url(#paint2_linear)" stroke-width="0.155427"/>
<path d="M138.85 16.8791L138.909 16.823L138.85 16.7669C136.878 14.8751 135.193 12.5803 134.109 10.0297L134.035 9.85518L133.965 10.0315C132.906 12.7114 131.318 15.0743 129.133 16.8841L129.066 16.9392L129.128 16.9996C131.179 19.0021 132.902 21.4449 133.965 24.1582L134.038 24.3428L134.11 24.1582C135.196 21.3871 136.742 18.9014 138.85 16.8791Z" stroke="url(#paint3_linear)" stroke-width="0.155427"/>
<path d="M166.121 16.9956L138.678 16.8099M138.678 16.8099H138.017V17.4291L138.678 16.8099ZM138.678 16.8099L138.017 16.1907" stroke="url(#paint4_linear)" stroke-width="0.310854"/>
<path d="M102.308 16.6245L129.751 16.8102M129.751 16.8102H130.412V16.191L129.751 16.8102ZM129.751 16.8102L130.412 17.4294" stroke="url(#paint5_linear)" stroke-width="0.310854"/>
<path d="M134.007 49.4463L134.053 23.7486M134.053 23.7486L134.049 23.1294L133.388 23.1329L134.053 23.7486ZM134.053 23.7486L134.711 23.126" stroke="url(#paint6_linear)" stroke-width="0.310854"/>
<path d="M134.007 -14.2715L134.053 11.4262M134.053 11.4262L134.049 12.0454L133.388 12.0419L134.053 11.4262ZM134.053 11.4262L134.711 12.0488" stroke="url(#paint7_linear)" stroke-width="0.310854"/>
<path d="M17.0662 40.8911C18.3548 41.0689 19.6212 41.0689 21.1097 40.9578L21.2874 35.5813H21.6651C22.5538 37.803 24.7533 39.1804 27.5082 39.1804C31.685 39.1804 34.3289 35.8034 34.3955 31.36C34.4622 26.0723 31.8406 22.8731 27.5749 22.8731C24.3312 22.8731 22.3761 25.2725 21.5985 26.8055H21.243L20.8431 22.8509C19.6212 22.7398 18.2437 22.7398 17.044 22.9397C16.9107 28.9383 16.9107 34.8925 17.0662 40.8911ZM21.0431 33.4484V28.8495C22.5316 26.6722 24.1534 26.0723 25.6198 26.0723C28.508 26.0723 30.5298 27.7386 30.5298 31.4711C30.5298 34.6037 28.508 36.2255 25.6198 36.2255C24.1534 36.2255 22.5538 35.6257 21.0431 33.4484ZM50.1797 39.0027C51.3128 39.1138 52.5792 39.1138 53.7123 38.936C53.7123 37.6474 53.8011 33.3151 53.8011 31.0045C53.8011 27.0721 53.2457 22.6731 45.0032 22.6731C41.4929 22.6731 38.1381 23.2063 37.5826 23.4063C37.4716 24.4949 37.4716 25.5391 37.5826 26.65C39.7599 25.9168 42.6481 25.5391 44.7588 25.5613C48.2913 25.6058 49.9576 26.961 49.8909 29.8715C43.6257 28.1607 37.005 29.4049 37.005 34.8925C37.005 37.7807 38.9157 39.4248 43.0258 39.4248C47.1804 39.4248 48.469 37.3364 49.4021 35.8256H49.802L50.1797 39.0027ZM41.0263 34.3149C41.0263 30.4713 46.936 30.3602 49.8909 31.4044V31.871C49.8909 34.4704 47.447 36.8921 44.7588 36.8921C42.4704 36.8921 41.0263 36.2922 41.0263 34.3149ZM57.4432 38.9138C58.8206 39.1138 60.1314 39.1138 61.4867 38.9138C61.6422 32.2487 61.6422 25.4725 61.4867 18.8073C60.1314 18.6074 58.8206 18.6074 57.4432 18.8073C57.2876 25.4725 57.2876 32.2487 57.4432 38.9138ZM73.2432 39.4026C76.8201 39.4026 79.775 38.8694 80.597 38.6694C80.7081 37.5808 80.7081 36.5588 80.597 35.4702C78.3975 36.1811 75.6426 36.5588 73.4876 36.5366C70.9992 36.4699 68.7553 35.0925 68.7998 32.3376C74.7317 33.7372 81.0414 32.071 81.0414 27.3387C81.0414 24.295 79.1751 22.6731 73.843 22.6731C68.5331 22.6731 64.6896 25.2725 64.6896 31.0934C64.6896 35.0036 66.5114 39.4026 73.2432 39.4026ZM68.7998 30.2047C68.8664 26.961 71.1548 25.6724 73.8875 25.6502C75.8426 25.628 77.3533 26.2056 77.3533 28.1607C77.3533 31.3156 71.6658 31.7821 68.7775 30.7157L68.7998 30.2047ZM90.6485 39.3137C93.1368 39.3137 94.7809 38.8472 94.8253 38.8472C94.9587 37.7141 94.9587 36.6032 94.8253 35.4924C92.0704 36.2033 89.9154 36.4033 89.671 33.404C89.4488 30.2714 89.6488 28.0719 89.6488 25.7613C91.4261 26.3389 93.5368 25.8946 94.7365 25.8724C94.8698 24.8504 94.8698 23.4507 94.7365 22.4509L89.5821 23.0286L89.5377 20.0959C87.316 20.8291 85.4275 21.8066 83.6501 22.8731C83.5168 23.784 83.5168 25.0281 83.6501 25.9168L86.0496 25.8057C86.0496 27.983 86.0496 30.5824 86.0052 33.404C85.9829 36.9365 86.7161 39.3137 90.6485 39.3137ZM104.534 39.3137C107.023 39.3137 108.667 38.8472 108.711 38.8472C108.844 37.7141 108.844 36.6032 108.711 35.4924C105.956 36.2033 103.801 36.4033 103.557 33.404C103.334 30.2714 103.534 28.0719 103.534 25.7613C105.312 26.3389 107.422 25.8946 108.622 25.8724C108.755 24.8504 108.755 23.4507 108.622 22.4509L103.468 23.0286L103.423 20.0959C101.202 20.8291 99.3132 21.8066 97.5358 22.8731C97.4025 23.784 97.4025 25.0281 97.5358 25.9168L99.9353 25.8057C99.9353 27.983 99.9353 30.5824 99.8908 33.404C99.8686 36.9365 100.602 39.3137 104.534 39.3137ZM120.064 39.4026C123.641 39.4026 126.596 38.8694 127.418 38.6694C127.529 37.5808 127.529 36.5588 127.418 35.4702C125.218 36.1811 122.463 36.5588 120.308 36.5366C117.82 36.4699 115.576 35.0925 115.621 32.3376C121.553 33.7372 127.862 32.071 127.862 27.3387C127.862 24.295 125.996 22.6731 120.664 22.6731C115.354 22.6731 111.51 25.2725 111.51 31.0934C111.51 35.0036 113.332 39.4026 120.064 39.4026ZM115.621 30.2047C115.687 26.961 117.976 25.6724 120.708 25.6502C122.663 25.628 124.174 26.2056 124.174 28.1607C124.174 31.3156 118.487 31.7821 115.598 30.7157L115.621 30.2047Z" fill="url(#paint8_linear)"/>
<path d="M17.0662 40.8911C18.3548 41.0689 19.6212 41.0689 21.1097 40.9578L21.2874 35.5813H21.6651C22.5538 37.803 24.7533 39.1804 27.5082 39.1804C31.685 39.1804 34.3289 35.8034 34.3955 31.36C34.4622 26.0723 31.8406 22.8731 27.5749 22.8731C24.3312 22.8731 22.3761 25.2725 21.5985 26.8055H21.243L20.8431 22.8509C19.6212 22.7398 18.2437 22.7398 17.044 22.9397C16.9107 28.9383 16.9107 34.8925 17.0662 40.8911ZM21.0431 33.4484V28.8495C22.5316 26.6722 24.1534 26.0723 25.6198 26.0723C28.508 26.0723 30.5298 27.7386 30.5298 31.4711C30.5298 34.6037 28.508 36.2255 25.6198 36.2255C24.1534 36.2255 22.5538 35.6257 21.0431 33.4484ZM50.1797 39.0027C51.3128 39.1138 52.5792 39.1138 53.7123 38.936C53.7123 37.6474 53.8011 33.3151 53.8011 31.0045C53.8011 27.0721 53.2457 22.6731 45.0032 22.6731C41.4929 22.6731 38.1381 23.2063 37.5826 23.4063C37.4716 24.4949 37.4716 25.5391 37.5826 26.65C39.7599 25.9168 42.6481 25.5391 44.7588 25.5613C48.2913 25.6058 49.9576 26.961 49.8909 29.8715C43.6257 28.1607 37.005 29.4049 37.005 34.8925C37.005 37.7807 38.9157 39.4248 43.0258 39.4248C47.1804 39.4248 48.469 37.3364 49.4021 35.8256H49.802L50.1797 39.0027ZM41.0263 34.3149C41.0263 30.4713 46.936 30.3602 49.8909 31.4044V31.871C49.8909 34.4704 47.447 36.8921 44.7588 36.8921C42.4704 36.8921 41.0263 36.2922 41.0263 34.3149ZM57.4432 38.9138C58.8206 39.1138 60.1314 39.1138 61.4867 38.9138C61.6422 32.2487 61.6422 25.4725 61.4867 18.8073C60.1314 18.6074 58.8206 18.6074 57.4432 18.8073C57.2876 25.4725 57.2876 32.2487 57.4432 38.9138ZM73.2432 39.4026C76.8201 39.4026 79.775 38.8694 80.597 38.6694C80.7081 37.5808 80.7081 36.5588 80.597 35.4702C78.3975 36.1811 75.6426 36.5588 73.4876 36.5366C70.9992 36.4699 68.7553 35.0925 68.7998 32.3376C74.7317 33.7372 81.0414 32.071 81.0414 27.3387C81.0414 24.295 79.1751 22.6731 73.843 22.6731C68.5331 22.6731 64.6896 25.2725 64.6896 31.0934C64.6896 35.0036 66.5114 39.4026 73.2432 39.4026ZM68.7998 30.2047C68.8664 26.961 71.1548 25.6724 73.8875 25.6502C75.8426 25.628 77.3533 26.2056 77.3533 28.1607C77.3533 31.3156 71.6658 31.7821 68.7775 30.7157L68.7998 30.2047ZM90.6485 39.3137C93.1368 39.3137 94.7809 38.8472 94.8253 38.8472C94.9587 37.7141 94.9587 36.6032 94.8253 35.4924C92.0704 36.2033 89.9154 36.4033 89.671 33.404C89.4488 30.2714 89.6488 28.0719 89.6488 25.7613C91.4261 26.3389 93.5368 25.8946 94.7365 25.8724C94.8698 24.8504 94.8698 23.4507 94.7365 22.4509L89.5821 23.0286L89.5377 20.0959C87.316 20.8291 85.4275 21.8066 83.6501 22.8731C83.5168 23.784 83.5168 25.0281 83.6501 25.9168L86.0496 25.8057C86.0496 27.983 86.0496 30.5824 86.0052 33.404C85.9829 36.9365 86.7161 39.3137 90.6485 39.3137ZM104.534 39.3137C107.023 39.3137 108.667 38.8472 108.711 38.8472C108.844 37.7141 108.844 36.6032 108.711 35.4924C105.956 36.2033 103.801 36.4033 103.557 33.404C103.334 30.2714 103.534 28.0719 103.534 25.7613C105.312 26.3389 107.422 25.8946 108.622 25.8724C108.755 24.8504 108.755 23.4507 108.622 22.4509L103.468 23.0286L103.423 20.0959C101.202 20.8291 99.3132 21.8066 97.5358 22.8731C97.4025 23.784 97.4025 25.0281 97.5358 25.9168L99.9353 25.8057C99.9353 27.983 99.9353 30.5824 99.8908 33.404C99.8686 36.9365 100.602 39.3137 104.534 39.3137ZM120.064 39.4026C123.641 39.4026 126.596 38.8694 127.418 38.6694C127.529 37.5808 127.529 36.5588 127.418 35.4702C125.218 36.1811 122.463 36.5588 120.308 36.5366C117.82 36.4699 115.576 35.0925 115.621 32.3376C121.553 33.7372 127.862 32.071 127.862 27.3387C127.862 24.295 125.996 22.6731 120.664 22.6731C115.354 22.6731 111.51 25.2725 111.51 31.0934C111.51 35.0036 113.332 39.4026 120.064 39.4026ZM115.621 30.2047C115.687 26.961 117.976 25.6724 120.708 25.6502C122.663 25.628 124.174 26.2056 124.174 28.1607C124.174 31.3156 118.487 31.7821 115.598 30.7157L115.621 30.2047Z" fill="url(#paint9_linear)" fill-opacity="0.5"/>
</g>
<defs>
<linearGradient id="paint0_linear" x1="74.7123" y1="25.7512" x2="95.8706" y2="66.06" gradientUnits="userSpaceOnUse">
<stop stop-color="#FF5C00"/>
<stop offset="0.536458" stop-color="#FDB675"/>
<stop offset="1" stop-color="#F50000"/>
</linearGradient>
<linearGradient id="paint1_linear" x1="93.2774" y1="23.3482" x2="109.841" y2="52.358" gradientUnits="userSpaceOnUse">
<stop stop-color="#FF5C00"/>
<stop offset="0.536458" stop-color="#FDB675"/>
<stop offset="1" stop-color="#F50000"/>
</linearGradient>
<linearGradient id="paint2_linear" x1="133.913" y1="-11.6928" x2="134.17" y2="77.0224" gradientUnits="userSpaceOnUse">
<stop stop-color="#FF9A60"/>
<stop offset="0.94571" stop-color="#F36F76"/>
</linearGradient>
<linearGradient id="paint3_linear" x1="74.7123" y1="25.7512" x2="95.8706" y2="66.06" gradientUnits="userSpaceOnUse">
<stop stop-color="#FF5C00"/>
<stop offset="0.536458" stop-color="#FDB675"/>
<stop offset="1" stop-color="#F50000"/>
</linearGradient>
<linearGradient id="paint4_linear" x1="139.075" y1="16.0668" x2="152.047" y2="17.6178" gradientUnits="userSpaceOnUse">
<stop stop-color="#FDA762"/>
<stop offset="1" stop-color="#F84C31" stop-opacity="0"/>
</linearGradient>
<linearGradient id="paint5_linear" x1="129.354" y1="17.5533" x2="116.383" y2="16.0023" gradientUnits="userSpaceOnUse">
<stop stop-color="#FD9E56"/>
<stop offset="1" stop-color="#F84C31" stop-opacity="0"/>
</linearGradient>
<linearGradient id="paint6_linear" x1="134.849" y1="24.116" x2="133.635" y2="36.3076" gradientUnits="userSpaceOnUse">
<stop stop-color="#FCA268"/>
<stop offset="1" stop-color="#F84C31" stop-opacity="0"/>
</linearGradient>
<linearGradient id="paint7_linear" x1="134.849" y1="11.0588" x2="133.635" y2="-1.13277" gradientUnits="userSpaceOnUse">
<stop stop-color="#FD9348"/>
<stop offset="1" stop-color="#F84C31" stop-opacity="0"/>
</linearGradient>
<linearGradient id="paint8_linear" x1="65.5651" y1="41.2574" x2="139.856" y2="34.545" gradientUnits="userSpaceOnUse">
<stop stop-color="#FF5C00"/>
<stop offset="0.348764" stop-color="#FDB675"/>
<stop offset="0.571416" stop-color="#F50000"/>
<stop offset="0.8125" stop-color="#B6A8FE"/>
<stop offset="1" stop-color="#B6A8FE"/>
</linearGradient>
<linearGradient id="paint9_linear" x1="88.8568" y1="-2.85513" x2="88.8925" y2="91.549" gradientUnits="userSpaceOnUse">
<stop stop-color="white"/>
<stop offset="1" stop-color="white" stop-opacity="0"/>
</linearGradient>
<clipPath id="clip0">
<rect width="227" height="50" fill="white"/>
</clipPath>
</defs>
</svg>
