<svg width="14" height="13" viewBox="0 0 14 13" fill="none" xmlns="http://www.w3.org/2000/svg">
<path d="M0.885864 2.66655C0.885864 2.03588 1.39712 1.52463 2.02779 1.52463H4.31163C4.91735 1.52463 5.49825 1.76525 5.92656 2.19355C6.35486 2.62185 6.59548 3.20276 6.59548 3.80847V11.8019C6.59548 11.3476 6.41501 10.912 6.09379 10.5907C5.77256 10.2695 5.33688 10.089 4.88259 10.089H2.02779C1.39712 10.089 0.885864 9.57779 0.885864 8.94713V2.66655Z" stroke="white" stroke-width="1.46" stroke-linecap="round" stroke-linejoin="round"/>
<path d="M12.305 2.09559C12.305 1.78026 12.0494 1.52463 11.7341 1.52463H8.87927C8.27356 1.52463 7.69266 1.76525 7.26435 2.19355C6.83605 2.62185 6.59543 3.20276 6.59543 3.80847V11.8019C6.59543 11.3476 6.77589 10.912 7.09712 10.5907C7.41835 10.2695 7.85403 10.089 8.30831 10.089H11.1631C11.7938 10.089 12.305 9.57779 12.305 8.94713V2.09559Z" stroke="white" stroke-width="1.46" stroke-linecap="round" stroke-linejoin="round"/>
</svg>
