<svg width="10" height="12" viewBox="0 0 10 12" fill="none" xmlns="http://www.w3.org/2000/svg">
<path fill-rule="evenodd" clip-rule="evenodd" d="M3.4368 3.26981C3.43564 3.28431 3.43515 3.29416 3.43497 3.29863V3.29863C3.43497 3.94699 3.96057 4.47259 4.60893 4.47259H5.29853C5.94689 4.47259 6.47249 3.94698 6.47249 3.29862V3.29862C6.47231 3.29416 6.47182 3.28431 6.47066 3.26981C6.4681 3.23791 6.46241 3.1856 6.45011 3.12003C6.42483 2.98519 6.37574 2.81637 6.28573 2.65634C6.13885 2.39522 5.83001 2.0401 4.95373 2.0401C4.07745 2.0401 3.76861 2.39522 3.62173 2.65634C3.53172 2.81637 3.48263 2.98519 3.45735 3.12003C3.44505 3.1856 3.43937 3.23791 3.4368 3.26981ZM8.73572 4.77143C8.49506 4.57073 8.27249 4.30883 8.27249 3.99547V3.99547C8.27249 3.60591 7.95669 3.29011 7.56713 3.29011H7.37249C8.27249 3.29011 8.27249 3.2896 8.27249 3.28909L8.27249 3.28802L8.27248 3.28573L8.27245 3.28051L8.27227 3.26761C8.27209 3.25793 8.27179 3.24609 8.27127 3.23223C8.27023 3.20455 8.26833 3.16863 8.26488 3.12563C8.25799 3.03995 8.24478 2.9243 8.21928 2.78831C8.16898 2.52001 8.06689 2.15134 7.85456 1.77387C7.39675 0.959978 6.49621 0.240097 4.95373 0.240097C3.41125 0.240097 2.51071 0.959978 2.0529 1.77387C1.84057 2.15134 1.73848 2.52001 1.68818 2.78831C1.66268 2.9243 1.64947 3.03995 1.64259 3.12563C1.63913 3.16863 1.63723 3.20455 1.63619 3.23223C1.63567 3.24609 1.63537 3.25793 1.63519 3.26761L1.63502 3.28051L1.63498 3.28573L1.63497 3.28802L1.63497 3.28909C1.63497 3.2896 1.63497 3.29011 2.53497 3.29011H2.29875C1.93216 3.29011 1.63497 3.58729 1.63497 3.95389V3.95389C1.63497 4.27018 1.397 4.52887 1.13984 4.713C0.812975 4.94702 0.599976 5.32993 0.599976 5.76259V10.7076C0.599976 11.4201 1.17753 11.9976 1.88998 11.9976H7.91001C8.62246 11.9976 9.20001 11.4201 9.20001 10.7076V5.76259C9.20001 5.36424 9.01946 5.00806 8.73572 4.77143Z" fill="#747474"/>
</svg>
